<svg width="800" height="520" viewBox="0 0 800 520" fill="none" xmlns="http://www.w3.org/2000/svg">
  <rect width="800" height="520" rx="32" fill="#F5F8FF"/>
  <rect x="60" y="56" width="680" height="74" rx="22" fill="#DCE8FF"/>
  <rect x="90" y="82" width="184" height="20" rx="10" fill="#2247A4"/>
  <rect x="60" y="164" width="325" height="300" rx="26" fill="#FFFFFF" stroke="#C9D8F7" stroke-width="3"/>
  <rect x="415" y="164" width="325" height="140" rx="26" fill="#FFFFFF" stroke="#C9D8F7" stroke-width="3"/>
  <rect x="415" y="324" width="325" height="140" rx="26" fill="#FFFFFF" stroke="#C9D8F7" stroke-width="3"/>
  <rect x="92" y="198" width="138" height="18" rx="9" fill="#5A8BFF"/>
  <rect x="92" y="234" width="242" height="12" rx="6" fill="#D9E5FF"/>
  <rect x="92" y="257" width="214" height="12" rx="6" fill="#D9E5FF"/>
  <rect x="92" y="280" width="190" height="12" rx="6" fill="#D9E5FF"/>
  <rect x="92" y="318" width="260" height="110" rx="20" fill="#EDF3FF"/>
  <rect x="447" y="198" width="118" height="18" rx="9" fill="#5A8BFF"/>
  <rect x="447" y="234" width="230" height="12" rx="6" fill="#D9E5FF"/>
  <rect x="447" y="257" width="206" height="12" rx="6" fill="#D9E5FF"/>
  <rect x="447" y="358" width="138" height="18" rx="9" fill="#5A8BFF"/>
  <rect x="447" y="394" width="224" height="12" rx="6" fill="#D9E5FF"/>
  <rect x="447" y="417" width="194" height="12" rx="6" fill="#D9E5FF"/>
  <circle cx="678" cy="228" r="24" fill="#EAF1FF"/>
  <path d="M667 228L675 236L690 220" stroke="#2247A4" stroke-width="6" stroke-linecap="round" stroke-linejoin="round"/>
</svg>
