<svg width="800" height="520" viewBox="0 0 800 520" fill="none" xmlns="http://www.w3.org/2000/svg">
  <rect width="800" height="520" rx="28" fill="#EEF4FF"/>
  <rect x="56" y="46" width="688" height="428" rx="24" fill="white" stroke="#D6DEEE" stroke-width="2"/>
  <rect x="92" y="84" width="616" height="88" rx="18" fill="#2348A5"/>
  <text x="120" y="122" fill="white" font-family="Arial, sans-serif" font-size="28" font-weight="700">AI loodud veebilehe struktuur</text>
  <text x="120" y="152" fill="#DCE7FF" font-family="Arial, sans-serif" font-size="16">Pealkiri, juhis ja navigeerimine ühes vaates</text>
  <rect x="92" y="206" width="190" height="208" rx="18" fill="#F7FAFF" stroke="#D6DEEE" stroke-width="2"/>
  <rect x="304" y="206" width="190" height="208" rx="18" fill="#F7FAFF" stroke="#D6DEEE" stroke-width="2"/>
  <rect x="516" y="206" width="190" height="208" rx="18" fill="#F7FAFF" stroke="#D6DEEE" stroke-width="2"/>
  <text x="118" y="246" fill="#17306F" font-family="Arial, sans-serif" font-size="22" font-weight="700">HTML</text>
  <text x="118" y="278" fill="#526072" font-family="Arial, sans-serif" font-size="16">Sisuplokid</text>
  <text x="118" y="306" fill="#526072" font-family="Arial, sans-serif" font-size="16">Pealkirjad</text>
  <text x="118" y="334" fill="#526072" font-family="Arial, sans-serif" font-size="16">Juhised</text>
  <text x="330" y="246" fill="#17306F" font-family="Arial, sans-serif" font-size="22" font-weight="700">CSS</text>
  <text x="330" y="278" fill="#526072" font-family="Arial, sans-serif" font-size="16">Värvid</text>
  <text x="330" y="306" fill="#526072" font-family="Arial, sans-serif" font-size="16">Paigutus</text>
  <text x="330" y="334" fill="#526072" font-family="Arial, sans-serif" font-size="16">Stiil</text>
  <text x="542" y="246" fill="#17306F" font-family="Arial, sans-serif" font-size="22" font-weight="700">Visuaalid</text>
  <text x="542" y="278" fill="#526072" font-family="Arial, sans-serif" font-size="16">Illustratsioonid</text>
  <text x="542" y="306" fill="#526072" font-family="Arial, sans-serif" font-size="16">Selgitused</text>
  <text x="542" y="334" fill="#526072" font-family="Arial, sans-serif" font-size="16">Näited</text>
  <circle cx="670" cy="124" r="26" fill="#5B8CFF"/>
  <path d="M658 124L666 132L684 114" stroke="white" stroke-width="6" stroke-linecap="round" stroke-linejoin="round"/>
</svg>
