<svg width="800" height="520" viewBox="0 0 800 520" fill="none" xmlns="http://www.w3.org/2000/svg">
  <rect width="800" height="520" rx="28" fill="#F4F7FB"/>
  <rect x="70" y="60" width="360" height="390" rx="24" fill="white" stroke="#D6DEEE" stroke-width="2"/>
  <rect x="70" y="60" width="360" height="88" rx="24" fill="#2348A5"/>
  <text x="110" y="114" fill="white" font-family="Arial, sans-serif" font-size="30" font-weight="700">Kalender</text>
  <g fill="#17306F" font-family="Arial, sans-serif" font-size="20" font-weight="700">
    <text x="108" y="192">E</text>
    <text x="158" y="192">T</text>
    <text x="208" y="192">K</text>
    <text x="258" y="192">N</text>
    <text x="308" y="192">R</text>
  </g>
  <g fill="#526072" font-family="Arial, sans-serif" font-size="18">
    <text x="108" y="242">1</text>
    <text x="158" y="242">2</text>
    <text x="208" y="242">3</text>
    <text x="258" y="242">4</text>
    <text x="308" y="242">5</text>
    <text x="108" y="292">8</text>
    <text x="158" y="292">9</text>
    <text x="208" y="292">10</text>
    <text x="258" y="292">11</text>
    <text x="308" y="292">12</text>
  </g>
  <rect x="196" y="214" width="44" height="34" rx="10" fill="#5B8CFF" opacity="0.25"/>
  <rect x="246" y="264" width="44" height="34" rx="10" fill="#5B8CFF" opacity="0.25"/>
  <rect x="480" y="100" width="250" height="98" rx="22" fill="white" stroke="#D6DEEE" stroke-width="2"/>
  <rect x="480" y="220" width="250" height="98" rx="22" fill="white" stroke="#D6DEEE" stroke-width="2"/>
  <rect x="480" y="340" width="250" height="98" rx="22" fill="white" stroke="#D6DEEE" stroke-width="2"/>
  <text x="512" y="138" fill="#17306F" font-family="Arial, sans-serif" font-size="24" font-weight="700">Ajaplaneerimine</text>
  <text x="512" y="166" fill="#526072" font-family="Arial, sans-serif" font-size="16">Ülesanded ja tähtajad on nähtavad.</text>
  <text x="512" y="258" fill="#17306F" font-family="Arial, sans-serif" font-size="24" font-weight="700">Prioriteedid</text>
  <text x="512" y="286" fill="#526072" font-family="Arial, sans-serif" font-size="16">Olulised tegevused paistavad kohe välja.</text>
  <text x="512" y="378" fill="#17306F" font-family="Arial, sans-serif" font-size="24" font-weight="700">Muudatused</text>
  <text x="512" y="406" fill="#526072" font-family="Arial, sans-serif" font-size="16">Nihked mõjutavad kogu ülejäänud plaani.</text>
  <path d="M430 149H470" stroke="#5B8CFF" stroke-width="4" stroke-linecap="round"/>
  <path d="M430 269H470" stroke="#5B8CFF" stroke-width="4" stroke-linecap="round"/>
  <path d="M430 389H470" stroke="#5B8CFF" stroke-width="4" stroke-linecap="round"/>
</svg>
