<?xml version="1.0" encoding="UTF-8"?>
<svg id="_Слой_1" data-name="Слой 1" xmlns="http://www.w3.org/2000/svg" viewBox="0 0 1300.56 430">
  <defs>
    <style>
      .cls-1 {
        fill: #3ea56a;
      }

      .cls-2 {
        fill: #7d5af5;
      }

      .cls-3 {
        fill: #5c6bc0;
      }

      .cls-4 {
        fill: #e28a47;
      }

      .cls-5 {
        fill: #61708c;
      }

      .cls-6 {
        isolation: isolate;
      }

      .cls-7 {
        fill: #f2f0ff;
      }

      .cls-8 {
        fill: #eef8f1;
      }

      .cls-9 {
        fill: #fff;
        stroke: #e3e8f8;
        stroke-width: 2px;
      }

      .cls-10 {
        fill: #fbfcff;
      }

      .cls-11 {
        fill: #fff2ea;
      }

      .cls-12 {
        fill: #eef1ff;
      }

      .cls-13 {
        fill: none;
        stroke: #c9d1ff;
        stroke-linecap: round;
        stroke-width: 8px;
      }

      .cls-14 {
        fill: #1f2a44;
      }
    </style>
  </defs>
  <rect class="cls-10" width="1300.56" height="430" rx="28" ry="28"/>
  <rect class="cls-9" x="42.67" y="40" width="1215.22" height="350" rx="24" ry="24"/>
  <g>
    <g>
      <circle class="cls-12" cx="175.61" cy="170.23" r="48"/>
      <g class="cls-6">
        <path class="cls-3" d="M162.94,160.93c1.42-2.22,3.77-3.33,7.06-3.33s5.64,1.11,7.06,3.33c1.42,2.22,2.12,5.29,2.12,9.21s-.71,7.04-2.12,9.28c-1.42,2.24-3.77,3.37-7.06,3.37s-5.64-1.12-7.06-3.37c-1.42-2.24-2.12-5.34-2.12-9.28s.71-6.99,2.12-9.21ZM174.16,165.91c-.22-1.14-.65-2.08-1.29-2.8s-1.6-1.09-2.87-1.09-2.23.36-2.87,1.09-1.08,1.66-1.29,2.8c-.22,1.15-.32,2.56-.32,4.23s.1,3.17.31,4.33c.2,1.17.63,2.11,1.29,2.82.66.71,1.62,1.07,2.89,1.07s2.23-.36,2.89-1.07c.66-.71,1.09-1.65,1.29-2.82.2-1.17.31-2.61.31-4.33s-.11-3.09-.32-4.23Z"/>
        <path class="cls-3" d="M182.2,162.46v-4.39h8.19v24.79h-4.9v-20.4h-3.3Z"/>
      </g>
    </g>
    <g class="cls-6">
      <path class="cls-14" d="M111.12,241.54h-7.23l-1.2,3.46h-3.82l6.53-18.17h4.24l6.53,18.17h-3.85l-1.2-3.46ZM110.13,238.63l-2.63-7.59-2.63,7.59h5.25Z"/>
      <path class="cls-14" d="M124.61,241.65l3.64-11.05h3.87l-5.33,14.4h-4.42l-5.3-14.4h3.9l3.64,11.05Z"/>
      <path class="cls-14" d="M134.11,233.87c.58-1.13,1.37-1.99,2.37-2.6,1-.61,2.11-.91,3.34-.91,1.07,0,2.02.22,2.82.65.81.43,1.45.98,1.94,1.64v-2.05h3.67v14.4h-3.67v-2.11c-.47.68-1.11,1.24-1.94,1.68-.82.44-1.77.66-2.85.66-1.21,0-2.32-.31-3.31-.94-1-.62-1.79-1.5-2.37-2.64-.58-1.13-.87-2.44-.87-3.91s.29-2.75.87-3.87ZM144.06,235.52c-.35-.63-.81-1.12-1.4-1.46-.59-.34-1.22-.51-1.9-.51s-1.3.17-1.87.49c-.57.33-1.04.81-1.39,1.44-.36.63-.53,1.38-.53,2.25s.18,1.62.53,2.28c.35.65.82,1.15,1.4,1.49.58.35,1.2.52,1.86.52s1.31-.17,1.9-.51c.59-.34,1.06-.82,1.4-1.46s.52-1.39.52-2.28-.17-1.64-.52-2.27Z"/>
      <path class="cls-14" d="M160.33,244.6c-.94-.42-1.68-1-2.22-1.73-.55-.73-.85-1.53-.9-2.42h3.67c.07.55.34,1.01.82,1.38.48.36,1.07.55,1.78.55s1.24-.14,1.62-.42c.39-.28.59-.63.59-1.07,0-.47-.24-.82-.72-1.05-.48-.23-1.23-.49-2.27-.77-1.07-.26-1.95-.53-2.64-.81-.68-.28-1.27-.7-1.77-1.27-.49-.57-.74-1.34-.74-2.31,0-.8.23-1.52.69-2.18.46-.66,1.12-1.18,1.98-1.56.86-.38,1.87-.57,3.03-.57,1.72,0,3.08.43,4.11,1.29,1.02.86,1.59,2.01,1.69,3.47h-3.48c-.05-.57-.29-1.03-.71-1.37-.42-.34-.99-.51-1.7-.51-.66,0-1.17.12-1.52.36-.36.24-.53.58-.53,1.01,0,.49.24.85.73,1.11.48.25,1.24.51,2.26.77,1.04.26,1.9.53,2.57.81.68.28,1.26.71,1.75,1.29.49.58.75,1.35.77,2.3,0,.83-.23,1.58-.69,2.24-.46.66-1.12,1.17-1.98,1.55-.86.37-1.86.56-3,.56s-2.24-.21-3.17-.64Z"/>
      <path class="cls-14" d="M185.45,238.89h-10.53c.09,1.04.45,1.86,1.09,2.44.64.59,1.43.88,2.37.88,1.35,0,2.31-.58,2.89-1.74h3.93c-.42,1.39-1.21,2.53-2.39,3.42-1.18.89-2.63,1.34-4.34,1.34-1.39,0-2.63-.31-3.73-.92-1.1-.61-1.96-1.49-2.57-2.61s-.92-2.43-.92-3.9.3-2.8.91-3.93c.61-1.13,1.46-1.99,2.55-2.6,1.09-.61,2.35-.91,3.77-.91s2.6.29,3.68.88c1.08.59,1.92,1.43,2.52,2.51.6,1.08.9,2.33.9,3.73,0,.52-.04.99-.1,1.4ZM181.78,236.45c-.02-.94-.36-1.69-1.01-2.25s-1.46-.85-2.42-.85c-.9,0-1.66.27-2.27.82-.62.55-.99,1.3-1.13,2.28h6.84Z"/>
      <path class="cls-14" d="M188.14,233.87c.58-1.13,1.37-1.99,2.37-2.6,1-.61,2.11-.91,3.34-.91,1.07,0,2.02.22,2.82.65.81.43,1.45.98,1.94,1.64v-2.05h3.67v14.4h-3.67v-2.11c-.47.68-1.11,1.24-1.94,1.68-.82.44-1.77.66-2.85.66-1.21,0-2.32-.31-3.31-.94-1-.62-1.79-1.5-2.37-2.64-.58-1.13-.87-2.44-.87-3.91s.29-2.75.87-3.87ZM198.09,235.52c-.35-.63-.81-1.12-1.4-1.46-.59-.34-1.22-.51-1.9-.51s-1.3.17-1.87.49c-.57.33-1.04.81-1.39,1.44-.36.63-.53,1.38-.53,2.25s.18,1.62.53,2.28c.35.65.82,1.15,1.4,1.49.58.35,1.2.52,1.86.52s1.31-.17,1.9-.51c.59-.34,1.06-.82,1.4-1.46s.52-1.39.52-2.28-.17-1.64-.52-2.27Z"/>
      <path class="cls-14" d="M205.77,233.87c.58-1.13,1.37-1.99,2.38-2.6,1.01-.61,2.12-.91,3.35-.91.94,0,1.83.2,2.68.61.85.41,1.52.95,2.03,1.62v-6.84h3.69v19.24h-3.69v-2.13c-.45.71-1.08,1.28-1.9,1.72-.81.43-1.76.65-2.83.65-1.21,0-2.32-.31-3.33-.94s-1.8-1.5-2.38-2.64c-.58-1.13-.87-2.44-.87-3.91s.29-2.75.87-3.87ZM215.71,235.52c-.35-.63-.81-1.12-1.4-1.46-.59-.34-1.22-.51-1.9-.51s-1.3.17-1.87.49c-.57.33-1.04.81-1.39,1.44-.36.63-.53,1.38-.53,2.25s.18,1.62.53,2.28c.35.65.82,1.15,1.4,1.49.58.35,1.2.52,1.86.52s1.31-.17,1.9-.51c.59-.34,1.06-.82,1.4-1.46s.52-1.39.52-2.28-.17-1.64-.52-2.27Z"/>
      <path class="cls-14" d="M236.75,238.89h-10.53c.09,1.04.45,1.86,1.09,2.44.64.59,1.43.88,2.37.88,1.35,0,2.31-.58,2.89-1.74h3.93c-.42,1.39-1.21,2.53-2.39,3.42-1.18.89-2.63,1.34-4.34,1.34-1.39,0-2.63-.31-3.73-.92-1.1-.61-1.96-1.49-2.57-2.61s-.92-2.43-.92-3.9.3-2.8.91-3.93c.61-1.13,1.46-1.99,2.55-2.6,1.09-.61,2.35-.91,3.77-.91s2.6.29,3.68.88c1.08.59,1.92,1.43,2.52,2.51.6,1.08.9,2.33.9,3.73,0,.52-.04.99-.1,1.4ZM233.08,236.45c-.02-.94-.36-1.69-1.01-2.25s-1.46-.85-2.42-.85c-.9,0-1.66.27-2.27.82-.62.55-.99,1.3-1.13,2.28h6.84Z"/>
      <path class="cls-14" d="M239.44,233.87c.58-1.13,1.37-1.99,2.38-2.6,1.01-.61,2.12-.91,3.35-.91.94,0,1.83.2,2.68.61.85.41,1.52.95,2.03,1.62v-6.84h3.69v19.24h-3.69v-2.13c-.45.71-1.08,1.28-1.9,1.72-.81.43-1.76.65-2.83.65-1.21,0-2.32-.31-3.33-.94s-1.8-1.5-2.38-2.64c-.58-1.13-.87-2.44-.87-3.91s.29-2.75.87-3.87ZM249.38,235.52c-.35-.63-.81-1.12-1.4-1.46-.59-.34-1.22-.51-1.9-.51s-1.3.17-1.87.49c-.57.33-1.04.81-1.39,1.44-.36.63-.53,1.38-.53,2.25s.18,1.62.53,2.28c.35.65.82,1.15,1.4,1.49.58.35,1.2.52,1.86.52s1.31-.17,1.9-.51c.59-.34,1.06-.82,1.4-1.46s.52-1.39.52-2.28-.17-1.64-.52-2.27Z"/>
    </g>
    <g class="cls-6">
      <path class="cls-5" d="M128.04,274.13h4.39v1.33h-6.03v-12.55h1.64v11.21Z"/>
      <path class="cls-5" d="M134.23,263.67c-.22-.22-.32-.48-.32-.79s.11-.58.32-.79.48-.32.79-.32.56.11.77.32.31.48.31.79-.1.58-.31.79-.47.32-.77.32-.58-.11-.79-.32ZM135.82,265.6v9.86h-1.64v-9.86h1.64Z"/>
      <path class="cls-5" d="M138.66,263.67c-.22-.22-.32-.48-.32-.79s.11-.58.32-.79.48-.32.79-.32.56.11.77.32.31.48.31.79-.1.58-.31.79-.47.32-.77.32-.58-.11-.79-.32ZM140.25,265.6v9.86h-1.64v-9.86h1.64Z"/>
      <path class="cls-5" d="M149.34,265.99c.64.37,1.12.84,1.43,1.4v-1.8h1.66v10.08c0,.9-.19,1.7-.58,2.4-.38.7-.93,1.25-1.65,1.65-.71.4-1.55.59-2.49.59-1.3,0-2.38-.31-3.24-.92-.86-.61-1.37-1.45-1.53-2.5h1.62c.18.6.55,1.08,1.12,1.45.56.37,1.24.55,2.03.55.9,0,1.63-.28,2.21-.85.57-.56.85-1.36.85-2.38v-2.07c-.32.58-.8,1.06-1.44,1.44-.64.38-1.38.58-2.23.58s-1.67-.22-2.39-.65c-.71-.43-1.27-1.04-1.68-1.82-.41-.78-.61-1.67-.61-2.66s.2-1.89.61-2.66c.41-.76.97-1.35,1.68-1.77.71-.42,1.51-.63,2.39-.63s1.6.19,2.24.56ZM150.32,268.57c-.3-.55-.71-.98-1.21-1.27-.51-.29-1.07-.44-1.68-.44s-1.17.14-1.67.43-.91.71-1.21,1.26-.45,1.2-.45,1.94.15,1.41.45,1.97.7.98,1.21,1.28,1.06.44,1.67.44,1.17-.15,1.68-.44c.51-.29.92-.72,1.21-1.28s.45-1.21.45-1.95-.15-1.39-.45-1.94Z"/>
      <path class="cls-5" d="M163.95,265.6v9.86h-1.64v-1.46c-.31.5-.75.9-1.31,1.18-.56.28-1.17.42-1.84.42-.77,0-1.46-.16-2.07-.48-.61-.32-1.1-.79-1.45-1.43-.35-.64-.53-1.41-.53-2.32v-5.78h1.62v5.56c0,.97.25,1.72.74,2.24.49.52,1.16.78,2.02.78s1.57-.27,2.07-.81c.5-.54.76-1.33.76-2.36v-5.42h1.64Z"/>
      <path class="cls-5" d="M173.53,266.95v5.81c0,.48.1.82.31,1.02.2.2.56.3,1.06.3h1.21v1.39h-1.48c-.91,0-1.6-.21-2.05-.63-.46-.42-.68-1.11-.68-2.07v-5.81h-1.28v-1.35h1.28v-2.48h1.64v2.48h2.57v1.35h-2.57Z"/>
      <path class="cls-5" d="M179.87,274.99c-.75-.42-1.34-1.02-1.76-1.79-.43-.77-.64-1.67-.64-2.69s.22-1.9.66-2.67c.44-.77,1.03-1.37,1.79-1.78.76-.41,1.6-.62,2.54-.62s1.78.21,2.54.62c.76.41,1.35,1.01,1.79,1.77s.66,1.66.66,2.68-.23,1.92-.68,2.69c-.45.77-1.06,1.37-1.83,1.79-.77.42-1.62.63-2.56.63s-1.76-.21-2.51-.63ZM184.04,273.77c.52-.28.93-.69,1.25-1.24.32-.55.48-1.22.48-2.02s-.16-1.46-.47-2.02-.72-.96-1.22-1.23c-.5-.27-1.05-.4-1.64-.4s-1.15.13-1.65.4c-.5.27-.9.68-1.2,1.23s-.45,1.22-.45,2.02.15,1.48.44,2.03c.29.55.69.96,1.18,1.23.49.27,1.03.4,1.62.4s1.14-.14,1.66-.41ZM180.34,263.87c-.19-.18-.28-.4-.28-.67s.09-.49.28-.67c.19-.19.41-.28.67-.28s.47.09.66.28c.19.19.28.41.28.67s-.09.49-.28.67c-.19.18-.41.27-.66.27s-.49-.09-.67-.27ZM183.26,263.87c-.18-.18-.27-.4-.27-.67s.09-.49.27-.67c.18-.19.4-.28.67-.28s.49.09.68.28.28.41.28.67-.09.49-.28.67c-.19.18-.41.27-.68.27s-.49-.09-.67-.27Z"/>
      <path class="cls-5" d="M191.39,274.99c-.75-.42-1.34-1.02-1.76-1.79-.43-.77-.64-1.67-.64-2.69s.22-1.9.66-2.67c.44-.77,1.03-1.37,1.79-1.78.76-.41,1.6-.62,2.54-.62s1.78.21,2.54.62c.76.41,1.35,1.01,1.79,1.77s.66,1.66.66,2.68-.23,1.92-.68,2.69c-.45.77-1.06,1.37-1.83,1.79-.77.42-1.62.63-2.56.63s-1.76-.21-2.51-.63ZM195.56,273.77c.52-.28.93-.69,1.25-1.24.32-.55.48-1.22.48-2.02s-.16-1.46-.47-2.02-.72-.96-1.22-1.23c-.5-.27-1.05-.4-1.64-.4s-1.15.13-1.65.4c-.5.27-.9.68-1.2,1.23s-.45,1.22-.45,2.02.15,1.48.44,2.03c.29.55.69.96,1.18,1.23.49.27,1.03.4,1.62.4s1.14-.14,1.66-.41ZM191.86,263.87c-.19-.18-.28-.4-.28-.67s.09-.49.28-.67c.19-.19.41-.28.67-.28s.47.09.66.28c.19.19.28.41.28.67s-.09.49-.28.67c-.19.18-.41.27-.66.27s-.49-.09-.67-.27ZM194.78,263.87c-.18-.18-.27-.4-.27-.67s.09-.49.27-.67c.18-.19.4-.28.67-.28s.49.09.68.28.28.41.28.67-.09.49-.28.67c-.19.18-.41.27-.68.27s-.49-.09-.67-.27Z"/>
      <path class="cls-5" d="M201.12,267.84c.41-.76.97-1.35,1.68-1.77.71-.42,1.51-.63,2.39-.63s1.61.19,2.25.56c.64.37,1.11.84,1.42,1.4v-1.8h1.66v9.86h-1.66v-1.84c-.32.58-.81,1.05-1.45,1.43s-1.39.57-2.24.57-1.67-.22-2.38-.65c-.71-.43-1.27-1.04-1.67-1.82-.41-.78-.61-1.67-.61-2.66s.2-1.89.61-2.66ZM208.41,268.57c-.3-.55-.71-.98-1.21-1.27-.51-.29-1.07-.44-1.68-.44s-1.17.14-1.67.43-.91.71-1.21,1.26-.45,1.2-.45,1.94.15,1.41.45,1.97.7.98,1.21,1.28,1.06.44,1.67.44,1.17-.15,1.68-.44c.51-.29.92-.72,1.21-1.28s.45-1.21.45-1.95-.15-1.39-.45-1.94Z"/>
      <path class="cls-5" d="M214.98,277.6c0,.88-.22,1.52-.67,1.93-.44.41-1.09.61-1.94.61h-.95v-1.39h.68c.46,0,.78-.09.96-.27.19-.18.28-.49.28-.92v-11.97h1.64v12.01ZM213.39,263.67c-.21-.22-.31-.48-.31-.79s.1-.58.31-.79.47-.32.78-.32.57.11.78.32.32.48.32.79-.11.58-.32.79-.47.32-.78.32-.57-.11-.78-.32Z"/>
      <path class="cls-5" d="M217.75,267.84c.41-.76.97-1.35,1.68-1.77.71-.42,1.51-.63,2.39-.63s1.61.19,2.25.56c.64.37,1.11.84,1.42,1.4v-1.8h1.66v9.86h-1.66v-1.84c-.32.58-.81,1.05-1.45,1.43s-1.39.57-2.24.57-1.67-.22-2.38-.65c-.71-.43-1.27-1.04-1.67-1.82-.41-.78-.61-1.67-.61-2.66s.2-1.89.61-2.66ZM225.04,268.57c-.3-.55-.71-.98-1.21-1.27-.51-.29-1.07-.44-1.68-.44s-1.17.14-1.67.43-.91.71-1.21,1.26-.45,1.2-.45,1.94.15,1.41.45,1.97.7.98,1.21,1.28,1.06.44,1.67.44,1.17-.15,1.68-.44c.51-.29.92-.72,1.21-1.28s.45-1.21.45-1.95-.15-1.39-.45-1.94Z"/>
      <path class="cls-5" d="M92.16,299.2c0,.88-.22,1.52-.67,1.93-.44.41-1.09.61-1.94.61h-.95v-1.39h.68c.46,0,.78-.09.96-.27.19-.18.28-.49.28-.92v-11.97h1.64v12.01ZM90.57,285.27c-.21-.22-.31-.48-.31-.79s.1-.58.31-.79.47-.32.78-.32.57.11.78.32.32.48.32.79-.11.58-.32.79-.47.32-.78.32-.57-.11-.78-.32Z"/>
      <path class="cls-5" d="M94.93,289.44c.41-.76.97-1.35,1.68-1.77.71-.42,1.51-.63,2.39-.63s1.61.19,2.25.56c.64.37,1.11.84,1.42,1.4v-1.8h1.66v9.86h-1.66v-1.84c-.32.58-.81,1.05-1.45,1.43s-1.39.57-2.24.57-1.67-.22-2.38-.65c-.71-.43-1.27-1.04-1.67-1.82-.41-.78-.61-1.67-.61-2.66s.2-1.89.61-2.66ZM102.22,290.17c-.3-.55-.71-.98-1.21-1.27-.51-.29-1.07-.44-1.68-.44s-1.17.14-1.67.43-.91.71-1.21,1.26-.45,1.2-.45,1.94.15,1.41.45,1.97.7.98,1.21,1.28,1.06.44,1.67.44,1.17-.15,1.68-.44c.51-.29.92-.72,1.21-1.28s.45-1.21.45-1.95-.15-1.39-.45-1.94Z"/>
      <path class="cls-5" d="M117.41,297.06l-3.87-4.36v4.36h-1.64v-13.32h1.64v7.83l3.8-4.37h2.29l-4.64,4.91,4.66,4.95h-2.23Z"/>
      <path class="cls-5" d="M121.17,289.44c.41-.76.97-1.35,1.68-1.77.71-.42,1.51-.63,2.39-.63s1.61.19,2.25.56c.64.37,1.11.84,1.42,1.4v-1.8h1.66v9.86h-1.66v-1.84c-.32.58-.81,1.05-1.45,1.43s-1.39.57-2.24.57-1.67-.22-2.38-.65c-.71-.43-1.27-1.04-1.67-1.82-.41-.78-.61-1.67-.61-2.66s.2-1.89.61-2.66ZM128.46,290.17c-.3-.55-.71-.98-1.21-1.27-.51-.29-1.07-.44-1.68-.44s-1.17.14-1.67.43-.91.71-1.21,1.26-.45,1.2-.45,1.94.15,1.41.45,1.97.7.98,1.21,1.28,1.06.44,1.67.44,1.17-.15,1.68-.44c.51-.29.92-.72,1.21-1.28s.45-1.21.45-1.95-.15-1.39-.45-1.94Z"/>
      <path class="cls-5" d="M134.98,283.74v13.32h-1.64v-13.32h1.64Z"/>
      <path class="cls-5" d="M146.72,292.74h-7.88c.06.97.39,1.73,1,2.28s1.34.82,2.21.82c.71,0,1.3-.17,1.77-.5s.81-.77,1-1.32h1.76c-.26.95-.79,1.72-1.58,2.31-.79.59-1.78.89-2.95.89-.94,0-1.77-.21-2.51-.63-.74-.42-1.32-1.02-1.74-1.79-.42-.77-.63-1.67-.63-2.69s.2-1.91.61-2.68c.41-.77.98-1.36,1.72-1.77s1.59-.62,2.55-.62,1.76.2,2.48.61c.72.41,1.27.97,1.66,1.68.39.71.59,1.52.59,2.42,0,.31-.02.64-.05.99ZM144.66,289.8c-.28-.45-.65-.79-1.12-1.03s-1-.35-1.57-.35c-.83,0-1.53.26-2.12.79s-.92,1.26-1,2.2h6.23c0-.62-.14-1.16-.41-1.61Z"/>
      <path class="cls-5" d="M156.65,288.1c.74.73,1.12,1.77,1.12,3.14v5.81h-1.62v-5.58c0-.98-.25-1.74-.74-2.26-.49-.52-1.16-.78-2.02-.78s-1.55.27-2.06.81c-.51.54-.77,1.33-.77,2.36v5.45h-1.64v-9.86h1.64v1.4c.32-.5.77-.89,1.32-1.17.56-.28,1.17-.41,1.84-.41,1.2,0,2.17.36,2.92,1.09Z"/>
      <path class="cls-5" d="M160.45,289.44c.41-.76.97-1.35,1.68-1.77.71-.42,1.52-.63,2.4-.63.77,0,1.48.18,2.14.53.66.35,1.16.82,1.51,1.4v-5.22h1.66v13.32h-1.66v-1.85c-.32.59-.8,1.07-1.44,1.45-.64.38-1.38.57-2.23.57s-1.67-.22-2.39-.65c-.71-.43-1.27-1.04-1.68-1.82-.41-.78-.61-1.67-.61-2.66s.2-1.89.61-2.66ZM167.74,290.17c-.3-.55-.71-.98-1.21-1.27-.51-.29-1.07-.44-1.68-.44s-1.17.14-1.67.43-.91.71-1.21,1.26-.45,1.2-.45,1.94.15,1.41.45,1.97.7.98,1.21,1.28,1.06.44,1.67.44,1.17-.15,1.68-.44c.51-.29.92-.72,1.21-1.28s.45-1.21.45-1.95-.15-1.39-.45-1.94Z"/>
      <path class="cls-5" d="M175.49,287.48c.53-.31,1.19-.47,1.95-.47v1.69h-.43c-1.84,0-2.75,1-2.75,2.99v5.36h-1.64v-9.86h1.64v1.6c.29-.56.7-1,1.23-1.31Z"/>
      <path class="cls-5" d="M179.39,285.27c-.22-.22-.32-.48-.32-.79s.11-.58.32-.79.48-.32.79-.32.56.11.77.32.31.48.31.79-.1.58-.31.79-.47.32-.77.32-.58-.11-.79-.32ZM180.97,287.2v9.86h-1.64v-9.86h1.64Z"/>
      <path class="cls-5" d="M192.24,295.55l3.06-8.35h1.75l-3.87,9.86h-1.91l-3.87-9.86h1.76l3.08,8.35Z"/>
      <path class="cls-5" d="M198.66,289.44c.41-.76.97-1.35,1.68-1.77.71-.42,1.51-.63,2.39-.63s1.61.19,2.25.56c.64.37,1.11.84,1.42,1.4v-1.8h1.66v9.86h-1.66v-1.84c-.32.58-.81,1.05-1.45,1.43s-1.39.57-2.24.57-1.67-.22-2.38-.65c-.71-.43-1.27-1.04-1.67-1.82-.41-.78-.61-1.67-.61-2.66s.2-1.89.61-2.66ZM205.95,290.17c-.3-.55-.71-.98-1.21-1.27-.51-.29-1.07-.44-1.68-.44s-1.17.14-1.67.43-.91.71-1.21,1.26-.45,1.2-.45,1.94.15,1.41.45,1.97.7.98,1.21,1.28,1.06.44,1.67.44,1.17-.15,1.68-.44c.51-.29.92-.72,1.21-1.28s.45-1.21.45-1.95-.15-1.39-.45-1.94Z"/>
      <path class="cls-5" d="M210.83,289.44c.41-.76.97-1.35,1.68-1.77.71-.42,1.51-.63,2.39-.63s1.61.19,2.25.56c.64.37,1.11.84,1.42,1.4v-1.8h1.66v9.86h-1.66v-1.84c-.32.58-.81,1.05-1.45,1.43s-1.39.57-2.24.57-1.67-.22-2.38-.65c-.71-.43-1.27-1.04-1.67-1.82-.41-.78-.61-1.67-.61-2.66s.2-1.89.61-2.66ZM218.12,290.17c-.3-.55-.71-.98-1.21-1.27-.51-.29-1.07-.44-1.68-.44s-1.17.14-1.67.43-.91.71-1.21,1.26-.45,1.2-.45,1.94.15,1.41.45,1.97.7.98,1.21,1.28,1.06.44,1.67.44,1.17-.15,1.68-.44c.51-.29.92-.72,1.21-1.28s.45-1.21.45-1.95-.15-1.39-.45-1.94Z"/>
      <path class="cls-5" d="M225,288.55v5.81c0,.48.1.82.31,1.02.2.2.56.3,1.06.3h1.21v1.39h-1.48c-.91,0-1.6-.21-2.05-.63-.46-.42-.68-1.11-.68-2.07v-5.81h-1.28v-1.35h1.28v-2.48h1.64v2.48h2.57v1.35h-2.57Z"/>
      <path class="cls-5" d="M238.5,292.74h-7.88c.06.97.39,1.73,1,2.28s1.34.82,2.21.82c.71,0,1.3-.17,1.77-.5s.81-.77,1-1.32h1.76c-.26.95-.79,1.72-1.58,2.31-.79.59-1.78.89-2.95.89-.94,0-1.77-.21-2.51-.63-.74-.42-1.32-1.02-1.74-1.79-.42-.77-.63-1.67-.63-2.69s.2-1.91.61-2.68c.41-.77.98-1.36,1.72-1.77s1.59-.62,2.55-.62,1.76.2,2.48.61c.72.41,1.27.97,1.66,1.68.39.71.59,1.52.59,2.42,0,.31-.02.64-.05.99ZM236.44,289.8c-.28-.45-.65-.79-1.12-1.03s-1-.35-1.57-.35c-.83,0-1.53.26-2.12.79s-.92,1.26-1,2.2h6.23c0-.62-.14-1.16-.41-1.61Z"/>
      <path class="cls-5" d="M242.17,296.83c-.6-.26-1.07-.62-1.42-1.08s-.54-.99-.58-1.59h1.69c.05.49.28.89.69,1.21.41.31.96.47,1.63.47.62,0,1.12-.14,1.48-.41s.54-.62.54-1.04-.19-.75-.58-.96c-.38-.21-.98-.42-1.78-.62-.73-.19-1.33-.39-1.79-.58-.46-.2-.86-.49-1.19-.88-.33-.39-.5-.9-.5-1.54,0-.5.15-.97.45-1.39.3-.42.73-.75,1.28-1,.55-.25,1.18-.37,1.89-.37,1.09,0,1.97.28,2.65.83.67.55,1.03,1.31,1.08,2.27h-1.64c-.04-.52-.24-.93-.62-1.24s-.88-.47-1.52-.47c-.59,0-1.06.13-1.4.38-.35.25-.52.58-.52.99,0,.32.1.59.31.8s.47.38.79.5c.32.13.76.27,1.32.42.71.19,1.28.38,1.73.57.44.19.83.46,1.14.84s.48.86.5,1.46c0,.54-.15,1.03-.45,1.46-.3.43-.72.77-1.27,1.02s-1.17.37-1.88.37c-.76,0-1.43-.13-2.03-.39Z"/>
      <path class="cls-5" d="M251.56,296.83c-.6-.26-1.07-.62-1.42-1.08s-.54-.99-.58-1.59h1.69c.05.49.28.89.69,1.21.41.31.96.47,1.63.47.62,0,1.12-.14,1.48-.41s.54-.62.54-1.04-.19-.75-.58-.96c-.38-.21-.98-.42-1.78-.62-.73-.19-1.33-.39-1.79-.58-.46-.2-.86-.49-1.19-.88-.33-.39-.5-.9-.5-1.54,0-.5.15-.97.45-1.39.3-.42.73-.75,1.28-1,.55-.25,1.18-.37,1.89-.37,1.09,0,1.97.28,2.65.83.67.55,1.03,1.31,1.08,2.27h-1.64c-.04-.52-.24-.93-.62-1.24s-.88-.47-1.52-.47c-.59,0-1.06.13-1.4.38-.35.25-.52.58-.52.99,0,.32.1.59.31.8s.47.38.79.5c.32.13.76.27,1.32.42.71.19,1.28.38,1.73.57.44.19.83.46,1.14.84s.48.86.5,1.46c0,.54-.15,1.03-.45,1.46-.3.43-.72.77-1.27,1.02s-1.17.37-1.88.37c-.76,0-1.43-.13-2.03-.39Z"/>
      <path class="cls-5" d="M268.45,292.74h-7.88c.06.97.39,1.73,1,2.28s1.34.82,2.21.82c.71,0,1.3-.17,1.77-.5s.81-.77,1-1.32h1.76c-.26.95-.79,1.72-1.58,2.31-.79.59-1.78.89-2.95.89-.94,0-1.77-.21-2.51-.63-.74-.42-1.32-1.02-1.74-1.79-.42-.77-.63-1.67-.63-2.69s.2-1.91.61-2.68c.41-.77.98-1.36,1.72-1.77s1.59-.62,2.55-.62,1.76.2,2.48.61c.72.41,1.27.97,1.66,1.68.39.71.59,1.52.59,2.42,0,.31-.02.64-.05.99ZM266.4,289.8c-.28-.45-.65-.79-1.12-1.03s-1-.35-1.57-.35c-.83,0-1.53.26-2.12.79s-.92,1.26-1,2.2h6.23c0-.62-.14-1.16-.41-1.61Z"/>
    </g>
    <path class="cls-13" d="M276.83,170h100"/>
    <g>
      <circle class="cls-8" cx="498.89" cy="170.25" r="48"/>
      <g class="cls-6">
        <path class="cls-1" d="M481.77,161.02c1.42-2.22,3.77-3.33,7.06-3.33s5.64,1.11,7.06,3.33c1.42,2.22,2.12,5.29,2.12,9.21s-.71,7.04-2.12,9.28c-1.42,2.24-3.77,3.37-7.06,3.37s-5.64-1.12-7.06-3.37c-1.42-2.24-2.12-5.34-2.12-9.28s.71-6.99,2.12-9.21ZM492.99,166c-.22-1.14-.65-2.08-1.29-2.8s-1.6-1.09-2.87-1.09-2.23.36-2.87,1.09-1.08,1.66-1.29,2.8c-.22,1.15-.32,2.56-.32,4.23s.1,3.17.31,4.33c.2,1.17.63,2.11,1.29,2.82.66.71,1.62,1.07,2.89,1.07s2.23-.36,2.89-1.07c.66-.71,1.09-1.65,1.29-2.82.2-1.17.31-2.61.31-4.33s-.11-3.09-.32-4.23Z"/>
        <path class="cls-1" d="M503.11,177.57c2.18-1.81,3.91-3.33,5.2-4.54,1.29-1.21,2.37-2.48,3.23-3.79.86-1.31,1.29-2.61,1.29-3.88,0-1.16-.27-2.06-.82-2.72s-1.38-.99-2.52-.99-2.01.38-2.62,1.14c-.61.76-.93,1.8-.95,3.11h-4.62c.09-2.72.9-4.78,2.43-6.19,1.53-1.41,3.47-2.11,5.83-2.11,2.58,0,4.57.69,5.95,2.06,1.38,1.37,2.07,3.18,2.07,5.42,0,1.77-.48,3.46-1.43,5.07-.95,1.61-2.04,3.01-3.26,4.2-1.22,1.19-2.82,2.62-4.79,4.3h10.03v3.94h-16.8v-3.54l1.77-1.5Z"/>
      </g>
    </g>
    <g class="cls-6">
      <path class="cls-14" d="M420.3,242.11h5.98v2.89h-9.62v-18.15h3.64v15.26Z"/>
      <path class="cls-14" d="M431.25,244.31c-1.11-.61-1.98-1.49-2.61-2.61-.63-1.13-.95-2.43-.95-3.9s.33-2.77.98-3.9,1.54-2,2.67-2.61c1.13-.62,2.38-.92,3.77-.92s2.64.31,3.77.92c1.13.62,2.02,1.49,2.67,2.61s.98,2.43.98,3.9-.33,2.77-1,3.9c-.67,1.13-1.57,2-2.7,2.61-1.14.62-2.4.92-3.81.92s-2.63-.31-3.74-.92ZM436.85,241.58c.58-.32,1.04-.8,1.39-1.44.35-.64.52-1.42.52-2.34,0-1.37-.36-2.42-1.08-3.16-.72-.74-1.6-1.1-2.64-1.1s-1.91.37-2.61,1.1c-.7.74-1.05,1.79-1.05,3.16s.34,2.42,1.03,3.16c.68.74,1.55,1.1,2.59,1.1.66,0,1.28-.16,1.86-.48Z"/>
      <path class="cls-14" d="M447.84,244.31c-1.11-.61-1.98-1.49-2.61-2.61-.63-1.13-.95-2.43-.95-3.9s.33-2.77.98-3.9,1.54-2,2.67-2.61c1.13-.62,2.38-.92,3.77-.92s2.64.31,3.77.92c1.13.62,2.02,1.49,2.67,2.61s.98,2.43.98,3.9-.33,2.77-1,3.9c-.67,1.13-1.57,2-2.7,2.61-1.14.62-2.4.92-3.81.92s-2.63-.31-3.74-.92ZM453.44,241.58c.58-.32,1.04-.8,1.39-1.44.35-.64.52-1.42.52-2.34,0-1.37-.36-2.42-1.08-3.16-.72-.74-1.6-1.1-2.64-1.1s-1.91.37-2.61,1.1c-.7.74-1.05,1.79-1.05,3.16s.34,2.42,1.03,3.16c.68.74,1.55,1.1,2.59,1.1.66,0,1.28-.16,1.86-.48Z"/>
      <path class="cls-14" d="M476.49,245l-4.89-6.14v6.14h-3.64v-19.24h3.64v10.95l4.84-6.11h4.73l-6.34,7.23,6.4,7.18h-4.73Z"/>
      <path class="cls-14" d="M483.08,233.87c.58-1.13,1.37-1.99,2.37-2.6,1-.61,2.11-.91,3.34-.91,1.07,0,2.02.22,2.82.65.81.43,1.45.98,1.94,1.64v-2.05h3.67v14.4h-3.67v-2.11c-.47.68-1.11,1.24-1.94,1.68-.82.44-1.77.66-2.85.66-1.21,0-2.32-.31-3.31-.94-1-.62-1.79-1.5-2.37-2.64-.58-1.13-.87-2.44-.87-3.91s.29-2.75.87-3.87ZM493.02,235.52c-.35-.63-.81-1.12-1.4-1.46-.59-.34-1.22-.51-1.9-.51s-1.3.17-1.87.49c-.57.33-1.04.81-1.39,1.44-.36.63-.53,1.38-.53,2.25s.18,1.62.53,2.28c.35.65.82,1.15,1.4,1.49.58.35,1.2.52,1.86.52s1.31-.17,1.9-.51c.59-.34,1.06-.82,1.4-1.46s.52-1.39.52-2.28-.17-1.64-.52-2.27Z"/>
      <path class="cls-14" d="M504.41,225.76v19.24h-3.64v-19.24h3.64Z"/>
      <path class="cls-14" d="M521.29,238.89h-10.53c.09,1.04.45,1.86,1.09,2.44.64.59,1.43.88,2.37.88,1.35,0,2.31-.58,2.89-1.74h3.93c-.42,1.39-1.21,2.53-2.39,3.42-1.18.89-2.63,1.34-4.34,1.34-1.39,0-2.63-.31-3.73-.92-1.1-.61-1.96-1.49-2.57-2.61s-.92-2.43-.92-3.9.3-2.8.91-3.93c.61-1.13,1.46-1.99,2.55-2.6,1.09-.61,2.35-.91,3.77-.91s2.6.29,3.68.88c1.08.59,1.92,1.43,2.52,2.51.6,1.08.9,2.33.9,3.73,0,.52-.04.99-.1,1.4ZM517.62,236.45c-.02-.94-.36-1.69-1.01-2.25s-1.46-.85-2.42-.85c-.9,0-1.66.27-2.27.82-.62.55-.99,1.3-1.13,2.28h6.84Z"/>
      <path class="cls-14" d="M536.18,232.01c1.06,1.08,1.59,2.6,1.59,4.54v8.45h-3.64v-7.96c0-1.14-.29-2.02-.86-2.64-.57-.62-1.35-.92-2.34-.92s-1.8.31-2.38.92c-.58.62-.87,1.5-.87,2.64v7.96h-3.64v-14.4h3.64v1.79c.48-.62,1.1-1.11,1.86-1.47.75-.35,1.58-.53,2.48-.53,1.72,0,3.1.54,4.16,1.62Z"/>
      <path class="cls-14" d="M541.16,233.87c.58-1.13,1.37-1.99,2.38-2.6,1.01-.61,2.12-.91,3.35-.91.94,0,1.83.2,2.68.61.85.41,1.52.95,2.03,1.62v-6.84h3.69v19.24h-3.69v-2.13c-.45.71-1.08,1.28-1.9,1.72-.81.43-1.76.65-2.83.65-1.21,0-2.32-.31-3.33-.94s-1.8-1.5-2.38-2.64c-.58-1.13-.87-2.44-.87-3.91s.29-2.75.87-3.87ZM551.11,235.52c-.35-.63-.81-1.12-1.4-1.46-.59-.34-1.22-.51-1.9-.51s-1.3.17-1.87.49c-.57.33-1.04.81-1.39,1.44-.36.63-.53,1.38-.53,2.25s.18,1.62.53,2.28c.35.65.82,1.15,1.4,1.49.58.35,1.2.52,1.86.52s1.31-.17,1.9-.51c.59-.34,1.06-.82,1.4-1.46s.52-1.39.52-2.28-.17-1.64-.52-2.27Z"/>
      <path class="cls-14" d="M572.14,238.89h-10.53c.09,1.04.45,1.86,1.09,2.44.64.59,1.43.88,2.37.88,1.35,0,2.31-.58,2.89-1.74h3.93c-.42,1.39-1.21,2.53-2.39,3.42-1.18.89-2.63,1.34-4.34,1.34-1.39,0-2.63-.31-3.73-.92-1.1-.61-1.96-1.49-2.57-2.61s-.92-2.43-.92-3.9.3-2.8.91-3.93c.61-1.13,1.46-1.99,2.55-2.6,1.09-.61,2.35-.91,3.77-.91s2.6.29,3.68.88c1.08.59,1.92,1.43,2.52,2.51.6,1.08.9,2.33.9,3.73,0,.52-.04.99-.1,1.4ZM568.48,236.45c-.02-.94-.36-1.69-1.01-2.25s-1.46-.85-2.42-.85c-.9,0-1.66.27-2.27.82-.62.55-.99,1.3-1.13,2.28h6.84Z"/>
      <path class="cls-14" d="M580.37,231.04c.75-.43,1.62-.65,2.59-.65v3.82h-.96c-1.14,0-2.01.27-2.59.81-.58.54-.87,1.47-.87,2.81v7.18h-3.64v-14.4h3.64v2.24c.47-.76,1.08-1.36,1.83-1.79Z"/>
    </g>
    <g class="cls-6">
      <path class="cls-5" d="M412.79,274.98c-.65-.29-1.17-.7-1.54-1.22-.37-.52-.56-1.12-.58-1.81h1.75c.06.59.3,1.08.73,1.48.43.4,1.05.6,1.86.6s1.4-.2,1.85-.58.67-.89.67-1.5c0-.48-.13-.87-.4-1.17-.26-.3-.59-.53-.99-.68-.4-.16-.93-.32-1.6-.5-.83-.22-1.49-.43-1.99-.65-.5-.22-.92-.56-1.28-1.02-.35-.46-.53-1.08-.53-1.86,0-.68.17-1.29.52-1.82.35-.53.84-.94,1.47-1.22s1.35-.43,2.17-.43c1.18,0,2.14.29,2.89.88s1.17,1.37,1.27,2.34h-1.8c-.06-.48-.31-.9-.76-1.27-.44-.37-1.03-.55-1.76-.55-.68,0-1.24.18-1.67.53-.43.35-.65.85-.65,1.49,0,.46.13.83.39,1.12.26.29.58.51.95.66.38.15.91.32,1.59.51.83.23,1.49.45,2,.67.5.22.94.56,1.3,1.03.36.46.54,1.09.54,1.88,0,.61-.16,1.19-.49,1.73s-.8.98-1.44,1.31c-.64.34-1.39.5-2.25.5s-1.57-.15-2.22-.44Z"/>
      <path class="cls-5" d="M421.65,263.51c-.22-.22-.32-.48-.32-.79s.11-.58.32-.79.48-.32.79-.32.55.11.76.32.32.48.32.79-.11.58-.32.79-.46.32-.76.32-.58-.11-.79-.32ZM423.24,265.43v9.86h-1.64v-9.86h1.64Z"/>
      <path class="cls-5" d="M427.48,275.07c-.6-.26-1.07-.62-1.42-1.08-.35-.46-.54-.99-.58-1.59h1.69c.05.49.28.89.69,1.21.41.31.96.47,1.63.47.62,0,1.12-.14,1.48-.41.36-.28.54-.62.54-1.04s-.19-.75-.58-.96c-.38-.21-.98-.42-1.78-.62-.73-.19-1.33-.39-1.79-.58-.46-.2-.86-.49-1.19-.88-.33-.39-.5-.9-.5-1.54,0-.5.15-.97.45-1.39s.73-.75,1.28-1c.55-.25,1.18-.37,1.89-.37,1.09,0,1.97.28,2.65.83.67.55,1.03,1.31,1.08,2.27h-1.64c-.04-.52-.24-.93-.62-1.24s-.88-.47-1.52-.47c-.59,0-1.06.13-1.4.38s-.52.58-.52.99c0,.32.1.59.31.8s.47.38.79.5.76.27,1.32.42c.71.19,1.28.38,1.73.57.44.19.83.46,1.14.84.32.37.48.86.5,1.46,0,.54-.15,1.03-.45,1.46-.3.43-.72.77-1.27,1.02s-1.17.37-1.88.37c-.76,0-1.43-.13-2.03-.39Z"/>
      <path class="cls-5" d="M444.37,270.98h-7.88c.06.97.39,1.73,1,2.28.61.55,1.34.82,2.21.82.71,0,1.3-.17,1.77-.5.47-.33.81-.77,1-1.32h1.76c-.26.95-.79,1.72-1.58,2.31-.79.59-1.78.89-2.95.89-.94,0-1.77-.21-2.51-.63-.74-.42-1.32-1.02-1.74-1.79-.42-.77-.63-1.67-.63-2.69s.2-1.91.61-2.68c.41-.77.98-1.36,1.72-1.77.74-.41,1.59-.62,2.55-.62s1.76.2,2.48.61c.72.41,1.27.97,1.66,1.68.39.71.59,1.52.59,2.42,0,.31-.02.64-.05.99ZM442.32,268.04c-.28-.45-.65-.79-1.12-1.03-.47-.23-1-.35-1.58-.35-.83,0-1.53.26-2.12.79s-.92,1.26-1,2.2h6.23c0-.62-.14-1.16-.41-1.61Z"/>
      <path class="cls-5" d="M448.04,275.07c-.6-.26-1.07-.62-1.42-1.08-.35-.46-.54-.99-.58-1.59h1.69c.05.49.28.89.69,1.21.41.31.96.47,1.63.47.62,0,1.12-.14,1.48-.41.36-.28.54-.62.54-1.04s-.19-.75-.58-.96c-.38-.21-.98-.42-1.78-.62-.73-.19-1.33-.39-1.79-.58-.46-.2-.86-.49-1.19-.88-.33-.39-.5-.9-.5-1.54,0-.5.15-.97.45-1.39s.73-.75,1.28-1c.55-.25,1.18-.37,1.89-.37,1.09,0,1.97.28,2.65.83.67.55,1.03,1.31,1.08,2.27h-1.64c-.04-.52-.24-.93-.62-1.24s-.88-.47-1.52-.47c-.59,0-1.06.13-1.4.38s-.52.58-.52.99c0,.32.1.59.31.8s.47.38.79.5.76.27,1.32.42c.71.19,1.28.38,1.73.57.44.19.83.46,1.14.84.32.37.48.86.5,1.46,0,.54-.15,1.03-.45,1.46-.3.43-.72.77-1.27,1.02s-1.17.37-1.88.37c-.76,0-1.43-.13-2.03-.39Z"/>
      <path class="cls-5" d="M457.97,266.78v5.81c0,.48.1.82.31,1.02.2.2.56.3,1.06.3h1.21v1.39h-1.48c-.91,0-1.6-.21-2.05-.63-.46-.42-.68-1.11-.68-2.07v-5.81h-1.28v-1.35h1.28v-2.48h1.64v2.48h2.57v1.35h-2.57Z"/>
      <path class="cls-5" d="M462.53,267.67c.41-.76.97-1.35,1.68-1.77.71-.42,1.51-.63,2.39-.63s1.61.19,2.25.56c.64.37,1.11.84,1.42,1.4v-1.8h1.66v9.86h-1.66v-1.84c-.32.58-.81,1.05-1.45,1.43-.64.38-1.39.57-2.24.57s-1.67-.22-2.38-.65c-.71-.43-1.27-1.04-1.67-1.82s-.61-1.67-.61-2.66.2-1.89.61-2.66ZM469.82,268.4c-.3-.55-.71-.98-1.21-1.27-.51-.29-1.07-.44-1.68-.44s-1.17.14-1.67.43-.91.71-1.21,1.26-.45,1.2-.45,1.94.15,1.41.45,1.97.7.98,1.21,1.28,1.06.44,1.67.44,1.17-.15,1.68-.44c.51-.29.92-.72,1.21-1.28s.45-1.21.45-1.95-.15-1.39-.45-1.94Z"/>
      <path class="cls-5" d="M487.22,266.34c.74.73,1.12,1.77,1.12,3.14v5.81h-1.62v-5.58c0-.98-.25-1.74-.74-2.26-.49-.52-1.16-.78-2.02-.78s-1.55.27-2.06.81c-.51.54-.77,1.33-.77,2.36v5.45h-1.64v-9.86h1.64v1.4c.32-.5.77-.89,1.32-1.17s1.17-.41,1.84-.41c1.2,0,2.17.36,2.92,1.09Z"/>
      <path class="cls-5" d="M491.08,263.51c-.22-.22-.32-.48-.32-.79s.11-.58.32-.79.48-.32.79-.32.55.11.76.32.32.48.32.79-.11.58-.32.79-.46.32-.76.32-.58-.11-.79-.32ZM492.66,265.43v9.86h-1.64v-9.86h1.64Z"/>
      <path class="cls-5" d="M509.36,265.73c.6.32,1.07.8,1.42,1.43.35.64.52,1.41.52,2.32v5.81h-1.62v-5.58c0-.98-.24-1.74-.73-2.26-.49-.52-1.14-.78-1.97-.78s-1.53.27-2.03.82-.76,1.33-.76,2.37v5.44h-1.62v-5.58c0-.98-.24-1.74-.73-2.26-.49-.52-1.14-.78-1.97-.78s-1.53.27-2.03.82-.76,1.33-.76,2.37v5.44h-1.64v-9.86h1.64v1.42c.32-.52.76-.91,1.3-1.19s1.15-.41,1.81-.41c.83,0,1.56.19,2.2.56.64.37,1.11.92,1.42,1.64.28-.7.73-1.24,1.37-1.62s1.34-.58,2.12-.58,1.45.16,2.05.48Z"/>
      <path class="cls-5" d="M514.04,263.51c-.22-.22-.32-.48-.32-.79s.11-.58.32-.79.48-.32.79-.32.55.11.76.32.32.48.32.79-.11.58-.32.79-.46.32-.76.32-.58-.11-.79-.32ZM515.63,265.43v9.86h-1.64v-9.86h1.64Z"/>
      <path class="cls-5" d="M526.9,273.79l3.06-8.35h1.75l-3.87,9.86h-1.91l-3.87-9.86h1.76l3.08,8.35Z"/>
      <path class="cls-5" d="M535.11,274.83c-.75-.42-1.34-1.02-1.76-1.79-.43-.77-.64-1.67-.64-2.69s.22-1.9.66-2.67,1.04-1.37,1.79-1.78,1.6-.62,2.54-.62,1.78.21,2.54.62,1.35,1.01,1.79,1.77c.44.77.66,1.66.66,2.68s-.23,1.92-.68,2.69c-.45.77-1.06,1.37-1.83,1.79-.77.42-1.62.63-2.56.63s-1.76-.21-2.51-.63ZM539.28,273.61c.52-.28.93-.69,1.25-1.24.32-.55.48-1.22.48-2.02s-.16-1.46-.47-2.02c-.31-.55-.72-.96-1.22-1.23-.5-.27-1.05-.4-1.64-.4s-1.15.13-1.65.4c-.5.27-.9.68-1.2,1.23s-.45,1.22-.45,2.02.15,1.48.44,2.03.69.96,1.18,1.23c.49.27,1.03.4,1.62.4s1.14-.14,1.66-.41ZM535.67,262.84c.32-.32.72-.49,1.2-.49.23,0,.42.04.58.12s.36.19.58.33c.17.12.32.21.45.28s.28.1.43.1c.2,0,.38-.07.52-.2.14-.13.23-.32.27-.58h.94c-.07.6-.27,1.06-.59,1.39-.32.32-.73.49-1.21.49-.23,0-.43-.04-.6-.12s-.37-.2-.58-.35c-.19-.12-.34-.21-.46-.27-.11-.06-.25-.09-.41-.09-.2,0-.38.07-.51.2-.14.13-.22.33-.26.59h-.95c.08-.61.29-1.08.6-1.4Z"/>
      <path class="cls-5" d="M544.9,263.51c-.22-.22-.32-.48-.32-.79s.11-.58.32-.79.48-.32.79-.32.55.11.76.32.32.48.32.79-.11.58-.32.79-.46.32-.76.32-.58-.11-.79-.32ZM546.48,265.43v9.86h-1.64v-9.86h1.64Z"/>
      <path class="cls-5" d="M556.07,266.78v5.81c0,.48.1.82.31,1.02.2.2.56.3,1.06.3h1.21v1.39h-1.48c-.91,0-1.6-.21-2.05-.63s-.68-1.11-.68-2.07v-5.81h-1.28v-1.35h1.28v-2.48h1.64v2.48h2.57v1.35h-2.57Z"/>
      <path class="cls-5" d="M569.57,270.98h-7.88c.06.97.39,1.73,1,2.28.61.55,1.34.82,2.21.82.71,0,1.3-.17,1.77-.5.47-.33.81-.77,1-1.32h1.76c-.26.95-.79,1.72-1.58,2.31-.79.59-1.78.89-2.95.89-.94,0-1.77-.21-2.51-.63s-1.32-1.02-1.74-1.79c-.42-.77-.63-1.67-.63-2.69s.2-1.91.61-2.68.98-1.36,1.72-1.77c.74-.41,1.59-.62,2.55-.62s1.76.2,2.48.61,1.28.97,1.67,1.68c.39.71.58,1.52.58,2.42,0,.31-.02.64-.05.99ZM567.52,268.04c-.28-.45-.65-.79-1.12-1.03-.47-.23-1-.35-1.57-.35-.83,0-1.53.26-2.12.79s-.92,1.26-1,2.2h6.23c0-.62-.14-1.16-.41-1.61Z"/>
      <path class="cls-5" d="M580.73,270.98h-7.88c.06.97.39,1.73,1,2.28.61.55,1.34.82,2.21.82.71,0,1.3-.17,1.77-.5.47-.33.81-.77,1-1.32h1.76c-.26.95-.79,1.72-1.58,2.31-.79.59-1.78.89-2.95.89-.94,0-1.77-.21-2.51-.63s-1.32-1.02-1.74-1.79c-.42-.77-.63-1.67-.63-2.69s.2-1.91.61-2.68.98-1.36,1.72-1.77c.74-.41,1.59-.62,2.55-.62s1.76.2,2.48.61,1.28.97,1.67,1.68c.39.71.58,1.52.58,2.42,0,.31-.02.64-.05.99ZM578.68,268.04c-.28-.45-.65-.79-1.12-1.03-.47-.23-1-.35-1.57-.35-.83,0-1.53.26-2.12.79s-.92,1.26-1,2.2h6.23c0-.62-.14-1.16-.41-1.61Z"/>
      <path class="cls-5" d="M405.7,296.9l-3.87-4.36v4.36h-1.64v-13.32h1.64v7.83l3.8-4.37h2.29l-4.64,4.91,4.66,4.95h-2.23Z"/>
      <path class="cls-5" d="M411.25,296.43c-.75-.42-1.34-1.02-1.76-1.79-.43-.77-.64-1.67-.64-2.69s.22-1.9.66-2.67,1.04-1.37,1.79-1.78,1.6-.62,2.54-.62,1.78.21,2.54.62,1.35,1.01,1.79,1.77c.44.77.66,1.66.66,2.68s-.23,1.92-.68,2.69c-.45.77-1.06,1.37-1.83,1.79-.77.42-1.62.63-2.56.63s-1.76-.21-2.51-.63ZM415.42,295.21c.52-.28.93-.69,1.25-1.24.32-.55.48-1.22.48-2.02s-.16-1.46-.47-2.02c-.31-.55-.72-.96-1.22-1.23-.5-.27-1.05-.4-1.64-.4s-1.15.13-1.65.4c-.5.27-.9.68-1.2,1.23s-.45,1.22-.45,2.02.15,1.48.44,2.03.69.96,1.18,1.23c.49.27,1.03.4,1.62.4s1.14-.14,1.66-.41Z"/>
      <path class="cls-5" d="M422.77,296.43c-.75-.42-1.34-1.02-1.76-1.79-.43-.77-.64-1.67-.64-2.69s.22-1.9.66-2.67c.44-.77,1.03-1.37,1.79-1.78.76-.41,1.6-.62,2.54-.62s1.78.21,2.54.62c.76.41,1.35,1.01,1.79,1.77.44.77.66,1.66.66,2.68s-.22,1.92-.67,2.69c-.45.77-1.06,1.37-1.83,1.79s-1.62.63-2.56.63-1.76-.21-2.51-.63ZM426.94,295.21c.52-.28.93-.69,1.25-1.24.32-.55.48-1.22.48-2.02s-.16-1.46-.47-2.02c-.31-.55-.72-.96-1.22-1.23-.5-.27-1.05-.4-1.64-.4s-1.15.13-1.65.4c-.5.27-.9.68-1.2,1.23s-.45,1.22-.45,2.02.15,1.48.44,2.03c.29.55.69.96,1.18,1.23.49.27,1.03.4,1.62.4s1.14-.14,1.66-.41Z"/>
      <path class="cls-5" d="M435.58,287.44c.64-.38,1.39-.57,2.24-.57s1.67.21,2.38.63c.71.42,1.28,1.01,1.68,1.77.41.76.61,1.65.61,2.66s-.2,1.88-.61,2.66c-.41.78-.97,1.39-1.68,1.82-.71.43-1.51.65-2.38.65s-1.58-.19-2.22-.57c-.64-.38-1.13-.85-1.47-1.41v6.5h-1.64v-14.54h1.64v1.82c.32-.56.81-1.04,1.45-1.41ZM440.38,289.99c-.3-.55-.71-.97-1.21-1.26s-1.07-.43-1.68-.43-1.16.15-1.67.44c-.51.29-.92.72-1.22,1.28-.31.56-.46,1.2-.46,1.93s.15,1.4.46,1.95c.31.56.71.98,1.22,1.28.51.29,1.06.44,1.67.44s1.17-.15,1.68-.44.92-.72,1.21-1.28.45-1.21.45-1.97-.15-1.39-.45-1.94Z"/>
      <path class="cls-5" d="M444.72,285.11c-.22-.22-.32-.48-.32-.79s.11-.58.32-.79.48-.32.79-.32.56.11.77.32.31.48.31.79-.1.58-.31.79-.47.32-.77.32-.58-.11-.79-.32ZM446.3,287.03v9.86h-1.64v-9.86h1.64Z"/>
      <path class="cls-5" d="M449.09,289.27c.41-.76.97-1.35,1.68-1.77.71-.42,1.51-.63,2.39-.63s1.61.19,2.25.56c.64.37,1.11.84,1.42,1.4v-1.8h1.66v9.86h-1.66v-1.84c-.32.58-.81,1.05-1.45,1.43-.64.38-1.39.57-2.24.57s-1.67-.22-2.38-.65c-.71-.43-1.27-1.04-1.67-1.82s-.61-1.67-.61-2.66.2-1.89.61-2.66ZM456.38,290c-.3-.55-.71-.98-1.21-1.27-.51-.29-1.07-.44-1.68-.44s-1.17.14-1.67.43-.91.71-1.21,1.26-.45,1.2-.45,1.94.15,1.41.45,1.97.7.98,1.21,1.28,1.06.44,1.67.44,1.17-.15,1.68-.44c.51-.29.92-.72,1.21-1.28s.45-1.21.45-1.95-.15-1.39-.45-1.94Z"/>
      <path class="cls-5" d="M467.86,296.43c-.75-.42-1.34-1.02-1.76-1.79-.43-.77-.64-1.67-.64-2.69s.22-1.9.66-2.67,1.04-1.37,1.79-1.78,1.6-.62,2.54-.62,1.78.21,2.54.62,1.35,1.01,1.79,1.77c.44.77.66,1.66.66,2.68s-.23,1.92-.68,2.69c-.45.77-1.06,1.37-1.83,1.79-.77.42-1.62.63-2.56.63s-1.76-.21-2.51-.63ZM472.02,295.21c.52-.28.93-.69,1.25-1.24.32-.55.48-1.22.48-2.02s-.16-1.46-.47-2.02c-.31-.55-.72-.96-1.22-1.23-.5-.27-1.05-.4-1.64-.4s-1.15.13-1.65.4c-.5.27-.9.68-1.2,1.23s-.45,1.22-.45,2.02.15,1.48.44,2.03.69.96,1.18,1.23c.49.27,1.03.4,1.62.4s1.14-.14,1.66-.41Z"/>
      <path class="cls-5" d="M479.22,283.58v13.32h-1.64v-13.32h1.64Z"/>
      <path class="cls-5" d="M490.96,292.58h-7.88c.06.97.39,1.73,1,2.28.61.55,1.34.82,2.21.82.71,0,1.3-.17,1.77-.5.47-.33.81-.77,1-1.32h1.76c-.26.95-.79,1.72-1.58,2.31-.79.59-1.78.89-2.95.89-.94,0-1.77-.21-2.51-.63-.74-.42-1.32-1.02-1.74-1.79-.42-.77-.63-1.67-.63-2.69s.2-1.91.61-2.68c.41-.77.98-1.36,1.72-1.77.74-.41,1.59-.62,2.55-.62s1.76.2,2.48.61c.72.41,1.27.97,1.66,1.68.39.71.59,1.52.59,2.42,0,.31-.02.64-.05.99ZM488.91,289.63c-.28-.45-.65-.79-1.12-1.03-.47-.23-1-.35-1.58-.35-.83,0-1.53.26-2.12.79s-.92,1.26-1,2.2h6.23c0-.62-.14-1.16-.41-1.61Z"/>
      <path class="cls-5" d="M507.09,287.33c.6.32,1.07.8,1.42,1.43.35.64.52,1.41.52,2.32v5.81h-1.62v-5.58c0-.98-.24-1.74-.73-2.26-.49-.52-1.14-.78-1.97-.78s-1.53.27-2.03.82-.76,1.33-.76,2.37v5.44h-1.62v-5.58c0-.98-.24-1.74-.73-2.26-.49-.52-1.14-.78-1.97-.78s-1.53.27-2.03.82-.76,1.33-.76,2.37v5.44h-1.64v-9.86h1.64v1.42c.32-.52.76-.91,1.3-1.19s1.15-.41,1.81-.41c.83,0,1.56.19,2.2.56.64.37,1.11.92,1.42,1.64.28-.7.73-1.24,1.37-1.62s1.34-.58,2.12-.58,1.45.16,2.05.48Z"/>
      <path class="cls-5" d="M511.71,289.27c.41-.76.97-1.35,1.68-1.77.71-.42,1.51-.63,2.38-.63s1.61.19,2.25.56,1.11.84,1.42,1.4v-1.8h1.66v9.86h-1.66v-1.84c-.32.58-.81,1.05-1.45,1.43-.64.38-1.39.57-2.24.57s-1.67-.22-2.38-.65c-.71-.43-1.27-1.04-1.67-1.82-.41-.78-.61-1.67-.61-2.66s.2-1.89.61-2.66ZM519,290c-.3-.55-.71-.98-1.21-1.27s-1.07-.44-1.68-.44-1.17.14-1.67.43-.91.71-1.21,1.26-.45,1.2-.45,1.94.15,1.41.45,1.97.7.98,1.21,1.28,1.06.44,1.67.44,1.17-.15,1.68-.44.92-.72,1.21-1.28.45-1.21.45-1.95-.15-1.39-.45-1.94Z"/>
      <path class="cls-5" d="M525.34,296.67c-.6-.26-1.07-.62-1.42-1.08-.35-.46-.54-.99-.58-1.59h1.69c.05.49.28.89.69,1.21.41.31.96.47,1.63.47.62,0,1.12-.14,1.48-.41.36-.28.54-.62.54-1.04s-.19-.75-.58-.96c-.38-.21-.98-.42-1.78-.62-.73-.19-1.33-.39-1.79-.58-.46-.2-.86-.49-1.19-.88-.33-.39-.5-.9-.5-1.54,0-.5.15-.97.45-1.39s.73-.75,1.28-1c.55-.25,1.18-.37,1.89-.37,1.09,0,1.97.28,2.65.83.67.55,1.03,1.31,1.08,2.27h-1.64c-.04-.52-.24-.93-.62-1.24s-.88-.47-1.52-.47c-.59,0-1.06.13-1.4.38s-.52.58-.52.99c0,.32.1.59.31.8s.47.38.79.5.76.27,1.32.42c.71.19,1.28.38,1.73.57.44.19.83.46,1.14.84.32.37.48.86.5,1.46,0,.54-.15,1.03-.45,1.46-.3.43-.72.77-1.27,1.02s-1.17.37-1.88.37c-.76,0-1.43-.13-2.03-.39Z"/>
      <path class="cls-5" d="M535.07,296.43c-.75-.42-1.34-1.02-1.76-1.79-.43-.77-.64-1.67-.64-2.69s.22-1.9.66-2.67c.44-.77,1.03-1.37,1.79-1.78.76-.41,1.6-.62,2.54-.62s1.78.21,2.54.62c.76.41,1.35,1.01,1.79,1.77.44.77.66,1.66.66,2.68s-.22,1.92-.67,2.69c-.45.77-1.06,1.37-1.83,1.79s-1.62.63-2.56.63-1.76-.21-2.51-.63ZM539.24,295.21c.52-.28.93-.69,1.25-1.24.32-.55.48-1.22.48-2.02s-.16-1.46-.47-2.02c-.31-.55-.72-.96-1.22-1.23-.5-.27-1.05-.4-1.64-.4s-1.15.13-1.65.4c-.5.27-.9.68-1.2,1.23s-.45,1.22-.45,2.02.15,1.48.44,2.03c.29.55.69.96,1.18,1.23.49.27,1.03.4,1.62.4s1.14-.14,1.66-.41Z"/>
      <path class="cls-5" d="M546.44,283.58v13.32h-1.64v-13.32h1.64Z"/>
      <path class="cls-5" d="M558.17,292.58h-7.88c.06.97.39,1.73,1,2.28.61.55,1.34.82,2.21.82.71,0,1.3-.17,1.77-.5.47-.33.81-.77,1-1.32h1.76c-.26.95-.79,1.72-1.58,2.31-.79.59-1.78.89-2.95.89-.94,0-1.77-.21-2.51-.63s-1.32-1.02-1.74-1.79c-.42-.77-.63-1.67-.63-2.69s.2-1.91.61-2.68.98-1.36,1.72-1.77c.74-.41,1.59-.62,2.55-.62s1.76.2,2.48.61,1.28.97,1.67,1.68c.39.71.58,1.52.58,2.42,0,.31-.02.64-.05.99ZM556.12,289.63c-.28-.45-.65-.79-1.12-1.03-.47-.23-1-.35-1.57-.35-.83,0-1.53.26-2.12.79s-.92,1.26-1,2.2h6.23c0-.62-.14-1.16-.41-1.61Z"/>
      <path class="cls-5" d="M564.06,295.39l3.06-8.35h1.75l-3.87,9.86h-1.91l-3.87-9.86h1.76l3.08,8.35Z"/>
      <path class="cls-5" d="M570.48,289.27c.41-.76.97-1.35,1.68-1.77.71-.42,1.51-.63,2.39-.63s1.61.19,2.25.56c.64.37,1.11.84,1.42,1.4v-1.8h1.66v9.86h-1.66v-1.84c-.32.58-.81,1.05-1.45,1.43-.64.38-1.39.57-2.24.57s-1.67-.22-2.38-.65c-.71-.43-1.27-1.04-1.67-1.82s-.61-1.67-.61-2.66.2-1.89.61-2.66ZM577.77,290c-.3-.55-.71-.98-1.21-1.27-.51-.29-1.07-.44-1.68-.44s-1.17.14-1.67.43-.91.71-1.21,1.26-.45,1.2-.45,1.94.15,1.41.45,1.97.7.98,1.21,1.28,1.06.44,1.67.44,1.17-.15,1.68-.44c.51-.29.92-.72,1.21-1.28s.45-1.21.45-1.95-.15-1.39-.45-1.94Z"/>
      <path class="cls-5" d="M584.11,296.67c-.6-.26-1.07-.62-1.42-1.08-.35-.46-.54-.99-.58-1.59h1.69c.05.49.28.89.69,1.21.41.31.96.47,1.63.47.62,0,1.12-.14,1.48-.41.36-.28.54-.62.54-1.04s-.19-.75-.58-.96-.98-.42-1.78-.62c-.73-.19-1.33-.39-1.79-.58-.46-.2-.86-.49-1.19-.88-.33-.39-.5-.9-.5-1.54,0-.5.15-.97.45-1.39.3-.42.73-.75,1.28-1,.55-.25,1.18-.37,1.89-.37,1.09,0,1.97.28,2.65.83.67.55,1.03,1.31,1.08,2.27h-1.64c-.04-.52-.24-.93-.62-1.24s-.88-.47-1.52-.47c-.59,0-1.06.13-1.4.38-.35.25-.52.58-.52.99,0,.32.11.59.32.8s.47.38.79.5c.32.13.76.27,1.32.42.71.19,1.28.38,1.73.57.44.19.83.46,1.14.84.32.37.48.86.5,1.46,0,.54-.15,1.03-.45,1.46-.3.43-.72.77-1.27,1.02s-1.17.37-1.88.37c-.76,0-1.43-.13-2.03-.39Z"/>
      <path class="cls-5" d="M594.04,288.38v5.81c0,.48.1.82.31,1.02.2.2.56.3,1.06.3h1.21v1.39h-1.48c-.91,0-1.6-.21-2.05-.63s-.68-1.11-.68-2.07v-5.81h-1.28v-1.35h1.28v-2.48h1.64v2.48h2.57v1.35h-2.57Z"/>
    </g>
    <path class="cls-13" d="M601.38,169.6h100"/>
    <g>
      <circle class="cls-11" cx="821.61" cy="170.17" r="48"/>
      <g class="cls-6">
        <path class="cls-4" d="M804.46,160.83c1.42-2.22,3.77-3.33,7.06-3.33s5.64,1.11,7.05,3.33c1.42,2.22,2.12,5.29,2.12,9.21s-.71,7.04-2.12,9.28c-1.42,2.24-3.77,3.37-7.05,3.37s-5.64-1.12-7.06-3.37c-1.42-2.24-2.12-5.34-2.12-9.28s.71-6.99,2.12-9.21ZM815.68,165.82c-.22-1.14-.65-2.08-1.29-2.8-.65-.73-1.6-1.09-2.87-1.09s-2.23.36-2.87,1.09c-.65.73-1.08,1.66-1.29,2.8-.22,1.15-.32,2.56-.32,4.23s.1,3.17.31,4.33c.2,1.17.63,2.11,1.29,2.82.66.71,1.62,1.07,2.89,1.07s2.23-.36,2.89-1.07c.66-.71,1.09-1.65,1.29-2.82.2-1.17.31-2.61.31-4.33s-.11-3.09-.32-4.23Z"/>
        <path class="cls-4" d="M826.76,159.25c1.48-1.24,3.44-1.85,5.86-1.85,1.65,0,3.07.29,4.25.87s2.07,1.36,2.67,2.35c.6.99.9,2.1.9,3.35,0,1.43-.37,2.63-1.1,3.62-.74.99-1.62,1.65-2.64,1.99v.14c1.31.41,2.34,1.13,3.08,2.18.74,1.04,1.11,2.38,1.11,4.01,0,1.36-.31,2.57-.94,3.64-.62,1.07-1.54,1.9-2.75,2.5-1.21.6-2.67.9-4.37.9-2.56,0-4.65-.65-6.26-1.94s-2.46-3.2-2.55-5.71h4.62c.04,1.11.42,2,1.14,2.67.71.67,1.69,1,2.94,1,1.16,0,2.04-.32,2.67-.97.62-.65.93-1.48.93-2.5,0-1.36-.43-2.33-1.29-2.92-.86-.59-2.2-.88-4.01-.88h-.99v-3.91h.99c3.22,0,4.83-1.08,4.83-3.23,0-.97-.29-1.73-.87-2.28s-1.41-.82-2.5-.82-1.89.29-2.46.87-.91,1.31-1,2.19h-4.66c.11-2.27.91-4.02,2.4-5.25Z"/>
      </g>
    </g>
    <g class="cls-6">
      <path class="cls-14" d="M746.55,242.11h5.98v2.89h-9.62v-18.15h3.64v15.26Z"/>
      <path class="cls-14" d="M755.09,228.27c-.42-.41-.64-.91-.64-1.52s.21-1.11.64-1.52c.42-.41.96-.61,1.6-.61s1.17.2,1.6.61c.42.41.64.92.64,1.52s-.21,1.11-.64,1.52c-.42.41-.96.61-1.6.61s-1.17-.2-1.6-.61ZM758.48,230.6v14.4h-3.64v-14.4h3.64Z"/>
      <path class="cls-14" d="M764.41,244.6c-.94-.42-1.68-1-2.22-1.73-.55-.73-.85-1.53-.9-2.42h3.67c.07.55.34,1.01.82,1.38.48.36,1.07.55,1.78.55s1.24-.14,1.62-.42c.39-.28.59-.63.59-1.07,0-.47-.24-.82-.72-1.05-.48-.23-1.23-.49-2.27-.77-1.08-.26-1.96-.53-2.64-.81-.68-.28-1.27-.7-1.77-1.27s-.74-1.34-.74-2.31c0-.8.23-1.52.69-2.18.46-.66,1.12-1.18,1.98-1.56.86-.38,1.87-.57,3.03-.57,1.72,0,3.08.43,4.11,1.29,1.02.86,1.59,2.01,1.69,3.47h-3.48c-.05-.57-.29-1.03-.71-1.37s-.99-.51-1.7-.51c-.66,0-1.17.12-1.52.36-.36.24-.53.58-.53,1.01,0,.49.24.85.73,1.11.48.25,1.24.51,2.26.77,1.04.26,1.9.53,2.57.81.68.28,1.26.71,1.75,1.29.49.58.75,1.35.77,2.3,0,.83-.23,1.58-.69,2.24-.46.66-1.12,1.17-1.98,1.55-.86.37-1.86.56-3,.56s-2.24-.21-3.17-.64Z"/>
      <path class="cls-14" d="M776.18,233.87c.58-1.13,1.37-1.99,2.37-2.6,1-.61,2.11-.91,3.34-.91,1.08,0,2.02.22,2.82.65.81.43,1.45.98,1.94,1.64v-2.05h3.67v14.4h-3.67v-2.11c-.47.68-1.11,1.24-1.94,1.68-.82.44-1.77.66-2.85.66-1.21,0-2.32-.31-3.32-.94-1-.62-1.79-1.5-2.37-2.64-.58-1.13-.87-2.44-.87-3.91s.29-2.75.87-3.87ZM786.12,235.52c-.35-.63-.82-1.12-1.4-1.46-.59-.34-1.22-.51-1.9-.51s-1.3.17-1.87.49c-.57.33-1.04.81-1.39,1.44s-.53,1.38-.53,2.25.18,1.62.53,2.28c.36.65.82,1.15,1.4,1.49.58.35,1.2.52,1.86.52s1.31-.17,1.9-.51,1.06-.82,1.4-1.46.52-1.39.52-2.28-.17-1.64-.52-2.27Z"/>
      <path class="cls-14" d="M813.34,238.89h-10.53c.09,1.04.45,1.86,1.09,2.44.64.59,1.43.88,2.37.88,1.35,0,2.31-.58,2.89-1.74h3.93c-.42,1.39-1.21,2.53-2.39,3.42-1.18.89-2.63,1.34-4.34,1.34-1.39,0-2.63-.31-3.73-.92-1.1-.61-1.96-1.49-2.57-2.61s-.92-2.43-.92-3.9.3-2.8.91-3.93,1.46-1.99,2.55-2.6c1.09-.61,2.35-.91,3.77-.91s2.6.29,3.68.88c1.08.59,1.92,1.43,2.52,2.51.6,1.08.9,2.33.9,3.73,0,.52-.04.99-.1,1.4ZM809.68,236.45c-.02-.94-.36-1.69-1.01-2.25-.66-.56-1.46-.85-2.42-.85-.9,0-1.66.27-2.27.82-.62.55-.99,1.3-1.13,2.28h6.84Z"/>
      <path class="cls-14" d="M821.57,231.04c.75-.43,1.62-.65,2.59-.65v3.82h-.96c-1.14,0-2.01.27-2.59.81-.58.54-.87,1.47-.87,2.81v7.18h-3.64v-14.4h3.64v2.24c.47-.76,1.08-1.36,1.83-1.79Z"/>
      <path class="cls-14" d="M826.54,233.87c.58-1.13,1.37-1.99,2.37-2.6,1-.61,2.11-.91,3.34-.91,1.07,0,2.01.22,2.82.65.81.43,1.45.98,1.94,1.64v-2.05h3.67v14.4h-3.67v-2.11c-.47.68-1.11,1.24-1.94,1.68-.82.44-1.77.66-2.85.66-1.21,0-2.32-.31-3.31-.94-1-.62-1.79-1.5-2.37-2.64-.58-1.13-.87-2.44-.87-3.91s.29-2.75.87-3.87ZM836.48,235.52c-.35-.63-.81-1.12-1.4-1.46-.59-.34-1.22-.51-1.9-.51s-1.3.17-1.87.49c-.57.33-1.04.81-1.39,1.44-.36.63-.53,1.38-.53,2.25s.18,1.62.53,2.28c.35.65.82,1.15,1.4,1.49.58.35,1.2.52,1.86.52s1.31-.17,1.9-.51c.59-.34,1.06-.82,1.4-1.46s.52-1.39.52-2.28-.17-1.64-.52-2.27Z"/>
      <path class="cls-14" d="M856.37,232.01c1.06,1.08,1.59,2.6,1.59,4.54v8.45h-3.64v-7.96c0-1.14-.29-2.02-.86-2.64s-1.35-.92-2.34-.92-1.8.31-2.38.92c-.58.62-.87,1.5-.87,2.64v7.96h-3.64v-14.4h3.64v1.79c.48-.62,1.1-1.11,1.86-1.47.75-.35,1.58-.53,2.48-.53,1.72,0,3.1.54,4.16,1.62Z"/>
      <path class="cls-14" d="M861.35,233.87c.58-1.13,1.37-1.99,2.38-2.6,1.01-.61,2.12-.91,3.35-.91.94,0,1.83.2,2.68.61.85.41,1.53.95,2.03,1.62v-6.84h3.69v19.24h-3.69v-2.13c-.45.71-1.08,1.28-1.9,1.72s-1.76.65-2.83.65c-1.21,0-2.32-.31-3.33-.94-1-.62-1.8-1.5-2.38-2.64-.58-1.13-.87-2.44-.87-3.91s.29-2.75.87-3.87ZM871.3,235.52c-.35-.63-.82-1.12-1.4-1.46-.59-.34-1.22-.51-1.9-.51s-1.3.17-1.87.49c-.57.33-1.04.81-1.39,1.44s-.53,1.38-.53,2.25.18,1.62.53,2.28c.36.65.82,1.15,1.4,1.49.58.35,1.2.52,1.86.52s1.31-.17,1.9-.51,1.06-.82,1.4-1.46.52-1.39.52-2.28-.17-1.64-.52-2.27Z"/>
      <path class="cls-14" d="M879.29,228.27c-.42-.41-.64-.91-.64-1.52s.21-1.11.64-1.52c.42-.41.96-.61,1.6-.61s1.17.2,1.6.61c.42.41.64.92.64,1.52s-.21,1.11-.64,1.52c-.42.41-.96.61-1.6.61s-1.17-.2-1.6-.61ZM882.68,230.6v14.4h-3.64v-14.4h3.64Z"/>
      <path class="cls-14" d="M886.21,233.87c.58-1.13,1.37-1.99,2.38-2.6,1-.61,2.12-.91,3.35-.91.94,0,1.83.2,2.68.61.85.41,1.52.95,2.03,1.62v-6.84h3.69v19.24h-3.69v-2.13c-.45.71-1.08,1.28-1.9,1.72-.82.43-1.76.65-2.83.65-1.21,0-2.32-.31-3.33-.94-1.01-.62-1.8-1.5-2.38-2.64-.58-1.13-.87-2.44-.87-3.91s.29-2.75.87-3.87ZM896.15,235.52c-.35-.63-.81-1.12-1.4-1.46-.59-.34-1.22-.51-1.9-.51s-1.3.17-1.87.49c-.57.33-1.04.81-1.39,1.44-.36.63-.53,1.38-.53,2.25s.18,1.62.53,2.28c.35.65.82,1.15,1.4,1.49.58.35,1.2.52,1.86.52s1.31-.17,1.9-.51c.59-.34,1.06-.82,1.4-1.46s.52-1.39.52-2.28-.17-1.64-.52-2.27Z"/>
    </g>
    <g class="cls-6">
      <path class="cls-5" d="M752.87,269.02c-.71.69-1.8,1.04-3.27,1.04h-2.41v5.24h-1.64v-12.55h4.05c1.42,0,2.49.34,3.23,1.03.74.68,1.11,1.57,1.11,2.65s-.36,1.91-1.07,2.6ZM751.62,268.12c.43-.4.65-.96.65-1.69,0-1.55-.89-2.32-2.66-2.32h-2.41v4.61h2.41c.91,0,1.58-.2,2.02-.59Z"/>
      <path class="cls-5" d="M764.72,265.43v9.86h-1.64v-1.46c-.31.5-.75.9-1.31,1.18-.56.28-1.17.42-1.84.42-.77,0-1.46-.16-2.07-.48-.61-.32-1.09-.79-1.45-1.43-.35-.64-.53-1.41-.53-2.32v-5.78h1.62v5.56c0,.97.25,1.72.74,2.24.49.52,1.16.78,2.02.78s1.57-.27,2.07-.81c.5-.54.76-1.33.76-2.36v-5.42h1.64ZM758.23,263.83c-.19-.18-.28-.4-.28-.67s.09-.49.28-.67.41-.28.67-.28.47.09.66.28c.19.19.28.41.28.67s-.09.49-.28.67c-.19.18-.41.27-.66.27s-.49-.09-.67-.27ZM761.16,263.83c-.18-.18-.27-.4-.27-.67s.09-.49.27-.67c.18-.19.4-.28.67-.28s.49.09.68.28.28.41.28.67-.09.49-.28.67c-.19.18-.41.27-.68.27s-.49-.09-.67-.27Z"/>
      <path class="cls-5" d="M774.41,265.73c.6.32,1.07.8,1.41,1.43.34.64.51,1.41.51,2.32v5.81h-1.62v-5.58c0-.98-.25-1.74-.74-2.26-.49-.52-1.16-.78-2.02-.78s-1.55.27-2.06.81c-.51.54-.76,1.33-.76,2.36v5.45h-1.64v-13.32h1.64v4.86c.32-.5.77-.89,1.34-1.17.57-.28,1.21-.41,1.92-.41.74,0,1.42.16,2.02.48Z"/>
      <path class="cls-5" d="M779.01,267.67c.41-.76.97-1.35,1.68-1.77.71-.42,1.51-.63,2.39-.63s1.61.19,2.25.56c.64.37,1.11.84,1.42,1.4v-1.8h1.66v9.86h-1.66v-1.84c-.32.58-.81,1.05-1.45,1.43-.64.38-1.39.57-2.24.57s-1.67-.22-2.38-.65c-.71-.43-1.27-1.04-1.67-1.82s-.61-1.67-.61-2.66.2-1.89.61-2.66ZM786.3,268.4c-.3-.55-.71-.98-1.21-1.27-.51-.29-1.07-.44-1.68-.44s-1.17.14-1.67.43-.91.71-1.21,1.26-.45,1.2-.45,1.94.15,1.41.45,1.97.7.98,1.21,1.28,1.06.44,1.67.44,1.17-.15,1.68-.44c.51-.29.92-.72,1.21-1.28s.45-1.21.45-1.95-.15-1.39-.45-1.94Z"/>
      <path class="cls-5" d="M791.18,267.67c.41-.76.97-1.35,1.68-1.77.71-.42,1.52-.63,2.4-.63.77,0,1.48.18,2.14.53.66.35,1.16.82,1.51,1.4v-5.22h1.66v13.32h-1.66v-1.85c-.32.59-.8,1.07-1.44,1.45s-1.38.57-2.23.57-1.67-.22-2.39-.65c-.71-.43-1.27-1.04-1.68-1.82s-.61-1.67-.61-2.66.2-1.89.61-2.66ZM798.47,268.4c-.3-.55-.71-.98-1.21-1.27-.51-.29-1.07-.44-1.68-.44s-1.17.14-1.67.43-.91.71-1.21,1.26-.45,1.2-.45,1.94.15,1.41.45,1.97.7.98,1.21,1.28,1.06.44,1.67.44,1.17-.15,1.68-.44c.51-.29.92-.72,1.21-1.28s.45-1.21.45-1.95-.15-1.39-.45-1.94Z"/>
      <path class="cls-5" d="M805.04,273.03l-2.02,4.84h-1.1l1.31-4.84h1.8Z"/>
      <path class="cls-5" d="M814.81,265.84c.64-.38,1.39-.57,2.24-.57s1.67.21,2.39.63c.71.42,1.27,1.01,1.68,1.77.41.76.61,1.65.61,2.66s-.2,1.88-.61,2.66-.97,1.39-1.68,1.82c-.71.43-1.51.65-2.39.65s-1.58-.19-2.22-.57-1.13-.85-1.47-1.41v6.5h-1.64v-14.54h1.64v1.82c.32-.56.81-1.04,1.45-1.41ZM819.6,268.39c-.3-.55-.71-.97-1.21-1.26-.51-.29-1.07-.43-1.68-.43s-1.16.15-1.67.44-.92.72-1.22,1.28c-.31.56-.46,1.2-.46,1.93s.15,1.4.46,1.95c.31.56.71.98,1.22,1.28s1.07.44,1.67.44,1.17-.15,1.68-.44c.51-.29.91-.72,1.21-1.28.3-.56.45-1.21.45-1.97s-.15-1.39-.45-1.94Z"/>
      <path class="cls-5" d="M832.63,265.43v9.86h-1.64v-1.46c-.31.5-.75.9-1.3,1.18-.56.28-1.17.42-1.84.42-.77,0-1.46-.16-2.07-.48-.61-.32-1.1-.79-1.45-1.43-.35-.64-.53-1.41-.53-2.32v-5.78h1.62v5.56c0,.97.25,1.72.74,2.24.49.52,1.16.78,2.02.78s1.57-.27,2.07-.81.76-1.33.76-2.36v-5.42h1.64Z"/>
      <path class="cls-5" d="M842.32,265.73c.6.32,1.07.8,1.41,1.43s.51,1.41.51,2.32v5.81h-1.62v-5.58c0-.98-.25-1.74-.74-2.26-.49-.52-1.16-.78-2.02-.78s-1.55.27-2.06.81c-.51.54-.77,1.33-.77,2.36v5.45h-1.64v-13.32h1.64v4.86c.32-.5.77-.89,1.34-1.17.57-.28,1.21-.41,1.92-.41s1.42.16,2.02.48Z"/>
      <path class="cls-5" d="M852.44,275.3l-3.87-4.36v4.36h-1.64v-13.32h1.64v7.83l3.8-4.37h2.29l-4.64,4.91,4.66,4.95h-2.23Z"/>
      <path class="cls-5" d="M864.95,265.43v9.86h-1.64v-1.46c-.31.5-.75.9-1.31,1.18-.56.28-1.17.42-1.84.42-.77,0-1.46-.16-2.07-.48-.61-.32-1.09-.79-1.45-1.43-.35-.64-.53-1.41-.53-2.32v-5.78h1.62v5.56c0,.97.25,1.72.74,2.24.49.52,1.16.78,2.02.78s1.57-.27,2.07-.81c.5-.54.76-1.33.76-2.36v-5.42h1.64Z"/>
      <path class="cls-5" d="M869.18,275.07c-.6-.26-1.07-.62-1.42-1.08-.35-.46-.54-.99-.58-1.59h1.69c.05.49.28.89.69,1.21.41.31.96.47,1.63.47.62,0,1.12-.14,1.48-.41.36-.28.54-.62.54-1.04s-.19-.75-.58-.96c-.38-.21-.98-.42-1.78-.62-.73-.19-1.33-.39-1.79-.58-.46-.2-.86-.49-1.19-.88-.33-.39-.5-.9-.5-1.54,0-.5.15-.97.45-1.39s.73-.75,1.28-1c.55-.25,1.18-.37,1.89-.37,1.09,0,1.97.28,2.65.83.67.55,1.03,1.31,1.08,2.27h-1.64c-.04-.52-.24-.93-.62-1.24s-.88-.47-1.52-.47c-.59,0-1.06.13-1.4.38s-.52.58-.52.99c0,.32.1.59.31.8s.47.38.79.5.76.27,1.32.42c.71.19,1.28.38,1.73.57.44.19.83.46,1.14.84.32.37.48.86.5,1.46,0,.54-.15,1.03-.45,1.46-.3.43-.72.77-1.27,1.02s-1.17.37-1.88.37c-.76,0-1.43-.13-2.03-.39Z"/>
      <path class="cls-5" d="M886.06,270.98h-7.88c.06.97.39,1.73,1,2.28.61.55,1.34.82,2.21.82.71,0,1.3-.17,1.77-.5.47-.33.81-.77,1-1.32h1.76c-.26.95-.79,1.72-1.58,2.31-.79.59-1.78.89-2.95.89-.94,0-1.77-.21-2.51-.63s-1.32-1.02-1.74-1.79c-.42-.77-.63-1.67-.63-2.69s.2-1.91.61-2.68.98-1.36,1.72-1.77c.74-.41,1.59-.62,2.55-.62s1.76.2,2.48.61,1.28.97,1.67,1.68c.39.71.58,1.52.58,2.42,0,.31-.02.64-.05.99ZM884.01,268.04c-.28-.45-.65-.79-1.12-1.03-.47-.23-1-.35-1.57-.35-.83,0-1.53.26-2.12.79s-.92,1.26-1,2.2h6.23c0-.62-.14-1.16-.41-1.61Z"/>
      <path class="cls-5" d="M888.27,267.67c.41-.76.97-1.35,1.68-1.77.71-.42,1.51-.63,2.4-.63.77,0,1.48.18,2.14.53.66.35,1.16.82,1.51,1.4v-5.22h1.66v13.32h-1.66v-1.85c-.32.59-.8,1.07-1.44,1.45-.64.38-1.38.57-2.23.57s-1.67-.22-2.38-.65c-.71-.43-1.28-1.04-1.68-1.82-.41-.78-.61-1.67-.61-2.66s.2-1.89.61-2.66ZM895.56,268.4c-.3-.55-.71-.98-1.21-1.27s-1.07-.44-1.68-.44-1.17.14-1.67.43-.91.71-1.21,1.26-.45,1.2-.45,1.94.15,1.41.45,1.97.7.98,1.21,1.28,1.06.44,1.67.44,1.17-.15,1.68-.44.92-.72,1.21-1.28.45-1.21.45-1.95-.15-1.39-.45-1.94Z"/>
      <path class="cls-5" d="M744.35,299.04c0,.88-.22,1.52-.67,1.93-.44.41-1.09.61-1.94.61h-.95v-1.39h.68c.46,0,.78-.09.96-.27.19-.18.28-.49.28-.92v-11.97h1.64v12.01ZM742.75,285.11c-.21-.22-.31-.48-.31-.79s.1-.58.31-.79.47-.32.78-.32.57.11.78.32.32.48.32.79-.11.58-.32.79-.47.32-.78.32-.57-.11-.78-.32Z"/>
      <path class="cls-5" d="M747.12,289.27c.41-.76.97-1.35,1.68-1.77.71-.42,1.51-.63,2.39-.63s1.61.19,2.25.56c.64.37,1.11.84,1.42,1.4v-1.8h1.66v9.86h-1.66v-1.84c-.32.58-.81,1.05-1.45,1.43-.64.38-1.39.57-2.24.57s-1.67-.22-2.38-.65c-.71-.43-1.27-1.04-1.67-1.82s-.61-1.67-.61-2.66.2-1.89.61-2.66ZM754.41,290c-.3-.55-.71-.98-1.21-1.27-.51-.29-1.07-.44-1.68-.44s-1.17.14-1.67.43-.91.71-1.21,1.26-.45,1.2-.45,1.94.15,1.41.45,1.97.7.98,1.21,1.28,1.06.44,1.67.44,1.17-.15,1.68-.44c.51-.29.92-.72,1.21-1.28s.45-1.21.45-1.95-.15-1.39-.45-1.94Z"/>
      <path class="cls-5" d="M773.04,292.58h-7.88c.06.97.39,1.73,1,2.28.61.55,1.34.82,2.21.82.71,0,1.3-.17,1.77-.5.47-.33.81-.77,1-1.32h1.76c-.26.95-.79,1.72-1.58,2.31-.79.59-1.78.89-2.95.89-.94,0-1.77-.21-2.51-.63s-1.32-1.02-1.74-1.79c-.42-.77-.63-1.67-.63-2.69s.2-1.91.61-2.68.98-1.36,1.72-1.77c.74-.41,1.59-.62,2.55-.62s1.76.2,2.48.61,1.28.97,1.67,1.68c.39.71.58,1.52.58,2.42,0,.31-.02.64-.05.99ZM770.99,289.63c-.28-.45-.65-.79-1.12-1.03-.47-.23-1-.35-1.57-.35-.83,0-1.53.26-2.12.79s-.92,1.26-1,2.2h6.23c0-.62-.14-1.16-.41-1.61Z"/>
      <path class="cls-5" d="M778.12,287.32c.53-.31,1.18-.47,1.95-.47v1.69h-.43c-1.84,0-2.75,1-2.75,2.99v5.36h-1.64v-9.86h1.64v1.6c.29-.56.7-1,1.23-1.31Z"/>
      <path class="cls-5" d="M782.02,285.11c-.22-.22-.32-.48-.32-.79s.11-.58.32-.79.48-.32.79-.32.56.11.77.32.31.48.31.79-.1.58-.31.79-.47.32-.77.32-.58-.11-.79-.32ZM783.6,287.03v9.86h-1.64v-9.86h1.64Z"/>
      <path class="cls-5" d="M788.03,283.58v13.32h-1.64v-13.32h1.64Z"/>
      <path class="cls-5" d="M790.88,285.11c-.22-.22-.32-.48-.32-.79s.11-.58.32-.79.48-.32.79-.32.56.11.77.32.31.48.31.79-.1.58-.31.79-.47.32-.77.32-.58-.11-.79-.32ZM792.46,287.03v9.86h-1.64v-9.86h1.64Z"/>
      <path class="cls-5" d="M796.71,296.67c-.6-.26-1.07-.62-1.42-1.08-.35-.46-.54-.99-.58-1.59h1.69c.05.49.28.89.69,1.21.41.31.96.47,1.63.47.62,0,1.12-.14,1.48-.41.36-.28.54-.62.54-1.04s-.19-.75-.58-.96-.98-.42-1.78-.62c-.73-.19-1.33-.39-1.79-.58-.46-.2-.86-.49-1.19-.88-.33-.39-.5-.9-.5-1.54,0-.5.15-.97.45-1.39.3-.42.73-.75,1.28-1,.55-.25,1.18-.37,1.89-.37,1.09,0,1.97.28,2.65.83.67.55,1.03,1.31,1.08,2.27h-1.64c-.04-.52-.24-.93-.62-1.24s-.88-.47-1.52-.47c-.59,0-1.06.13-1.4.38-.35.25-.52.58-.52.99,0,.32.11.59.32.8s.47.38.79.5c.32.13.76.27,1.32.42.71.19,1.28.38,1.73.57.44.19.83.46,1.14.84.32.37.48.86.5,1.46,0,.54-.15,1.03-.45,1.46-.3.43-.72.77-1.27,1.02s-1.17.37-1.88.37c-.76,0-1.43-.13-2.03-.39Z"/>
      <path class="cls-5" d="M813.59,292.58h-7.88c.06.97.39,1.73,1,2.28.61.55,1.34.82,2.21.82.71,0,1.3-.17,1.77-.5.47-.33.81-.77,1-1.32h1.76c-.26.95-.79,1.72-1.58,2.31-.79.59-1.78.89-2.95.89-.94,0-1.77-.21-2.51-.63s-1.32-1.02-1.74-1.79c-.42-.77-.63-1.67-.63-2.69s.2-1.91.61-2.68.98-1.36,1.72-1.77c.74-.41,1.59-.62,2.55-.62s1.76.2,2.48.61,1.28.97,1.67,1.68c.39.71.58,1.52.58,2.42,0,.31-.02.64-.05.99ZM811.54,289.63c-.28-.45-.65-.79-1.12-1.03-.47-.23-1-.35-1.57-.35-.83,0-1.53.26-2.12.79s-.92,1.26-1,2.2h6.23c0-.62-.14-1.16-.41-1.61Z"/>
      <path class="cls-5" d="M815.8,289.27c.41-.76.97-1.35,1.68-1.77.71-.42,1.52-.63,2.4-.63.77,0,1.48.18,2.14.53.66.35,1.16.82,1.51,1.4v-5.22h1.66v13.32h-1.66v-1.85c-.32.59-.8,1.07-1.44,1.45s-1.38.57-2.23.57-1.67-.22-2.39-.65c-.71-.43-1.27-1.04-1.68-1.82s-.61-1.67-.61-2.66.2-1.89.61-2.66ZM823.09,290c-.3-.55-.71-.98-1.21-1.27-.51-.29-1.07-.44-1.68-.44s-1.17.14-1.67.43-.91.71-1.21,1.26-.45,1.2-.45,1.94.15,1.41.45,1.97.7.98,1.21,1.28,1.06.44,1.67.44,1.17-.15,1.68-.44c.51-.29.92-.72,1.21-1.28s.45-1.21.45-1.95-.15-1.39-.45-1.94Z"/>
      <path class="cls-5" d="M834.78,288.38v5.81c0,.48.1.82.31,1.02.2.2.56.3,1.06.3h1.21v1.39h-1.48c-.91,0-1.6-.21-2.05-.63s-.68-1.11-.68-2.07v-5.81h-1.28v-1.35h1.28v-2.48h1.64v2.48h2.57v1.35h-2.57Z"/>
      <path class="cls-5" d="M841.12,296.43c-.75-.42-1.34-1.02-1.76-1.79-.43-.77-.64-1.67-.64-2.69s.22-1.9.66-2.67c.44-.77,1.03-1.37,1.79-1.78.76-.41,1.6-.62,2.54-.62s1.78.21,2.54.62c.76.41,1.35,1.01,1.79,1.77.44.77.66,1.66.66,2.68s-.22,1.92-.67,2.69c-.45.77-1.06,1.37-1.83,1.79s-1.62.63-2.56.63-1.76-.21-2.51-.63ZM845.29,295.21c.52-.28.93-.69,1.25-1.24.32-.55.48-1.22.48-2.02s-.16-1.46-.47-2.02c-.31-.55-.72-.96-1.22-1.23-.5-.27-1.05-.4-1.64-.4s-1.15.13-1.65.4c-.5.27-.9.68-1.2,1.23s-.45,1.22-.45,2.02.15,1.48.44,2.03c.29.55.69.96,1.18,1.23.49.27,1.03.4,1.62.4s1.14-.14,1.66-.41ZM841.59,285.31c-.19-.18-.28-.4-.28-.67s.09-.49.28-.67c.19-.19.41-.28.67-.28s.47.09.66.28.28.41.28.67-.09.49-.28.67c-.19.18-.41.27-.66.27-.26,0-.49-.09-.67-.27ZM844.51,285.31c-.18-.18-.27-.4-.27-.67s.09-.49.27-.67c.18-.19.4-.28.67-.28s.49.09.67.28.28.41.28.67-.09.49-.28.67c-.19.18-.41.27-.67.27s-.49-.09-.67-.27Z"/>
      <path class="cls-5" d="M852.64,296.43c-.75-.42-1.34-1.02-1.76-1.79-.43-.77-.64-1.67-.64-2.69s.22-1.9.66-2.67,1.04-1.37,1.79-1.78,1.6-.62,2.54-.62,1.78.21,2.54.62,1.35,1.01,1.79,1.77c.44.77.66,1.66.66,2.68s-.23,1.92-.68,2.69c-.45.77-1.06,1.37-1.83,1.79-.77.42-1.62.63-2.56.63s-1.76-.21-2.51-.63ZM856.81,295.21c.52-.28.93-.69,1.25-1.24.32-.55.48-1.22.48-2.02s-.16-1.46-.47-2.02c-.31-.55-.72-.96-1.22-1.23-.5-.27-1.05-.4-1.64-.4s-1.15.13-1.65.4c-.5.27-.9.68-1.2,1.23s-.45,1.22-.45,2.02.15,1.48.44,2.03.69.96,1.18,1.23c.49.27,1.03.4,1.62.4s1.14-.14,1.66-.41ZM853.11,285.31c-.19-.18-.28-.4-.28-.67s.09-.49.28-.67.41-.28.67-.28.47.09.66.28c.19.19.28.41.28.67s-.09.49-.28.67c-.19.18-.41.27-.66.27s-.49-.09-.67-.27ZM856.03,285.31c-.18-.18-.27-.4-.27-.67s.09-.49.27-.67c.18-.19.4-.28.67-.28s.49.09.68.28.28.41.28.67-.09.49-.28.67c-.19.18-.41.27-.68.27s-.49-.09-.67-.27Z"/>
      <path class="cls-5" d="M862.37,289.27c.41-.76.97-1.35,1.68-1.77.71-.42,1.51-.63,2.38-.63s1.61.19,2.25.56,1.11.84,1.42,1.4v-1.8h1.66v9.86h-1.66v-1.84c-.32.58-.81,1.05-1.45,1.43-.64.38-1.39.57-2.24.57s-1.67-.22-2.38-.65c-.71-.43-1.27-1.04-1.67-1.82-.41-.78-.61-1.67-.61-2.66s.2-1.89.61-2.66ZM869.66,290c-.3-.55-.71-.98-1.21-1.27s-1.07-.44-1.68-.44-1.17.14-1.67.43-.91.71-1.21,1.26-.45,1.2-.45,1.94.15,1.41.45,1.97.7.98,1.21,1.28,1.06.44,1.67.44,1.17-.15,1.68-.44.92-.72,1.21-1.28.45-1.21.45-1.95-.15-1.39-.45-1.94Z"/>
      <path class="cls-5" d="M876.23,299.04c0,.88-.22,1.52-.67,1.93-.44.41-1.09.61-1.94.61h-.95v-1.39h.68c.46,0,.78-.09.96-.27.19-.18.28-.49.28-.92v-11.97h1.64v12.01ZM874.64,285.11c-.21-.22-.31-.48-.31-.79s.1-.58.31-.79.47-.32.78-.32.57.11.78.32.32.48.32.79-.11.58-.32.79-.47.32-.78.32-.57-.11-.78-.32Z"/>
      <path class="cls-5" d="M879,289.27c.41-.76.97-1.35,1.68-1.77.71-.42,1.51-.63,2.39-.63s1.61.19,2.25.56c.64.37,1.11.84,1.42,1.4v-1.8h1.66v9.86h-1.66v-1.84c-.32.58-.81,1.05-1.45,1.43-.64.38-1.39.57-2.24.57s-1.67-.22-2.38-.65c-.71-.43-1.27-1.04-1.67-1.82s-.61-1.67-.61-2.66.2-1.89.61-2.66ZM886.29,290c-.3-.55-.71-.98-1.21-1.27-.51-.29-1.07-.44-1.68-.44s-1.17.14-1.67.43-.91.71-1.21,1.26-.45,1.2-.45,1.94.15,1.41.45,1.97.7.98,1.21,1.28,1.06.44,1.67.44,1.17-.15,1.68-.44c.51-.29.92-.72,1.21-1.28s.45-1.21.45-1.95-.15-1.39-.45-1.94Z"/>
      <path class="cls-5" d="M891.17,289.27c.41-.76.97-1.35,1.68-1.77.71-.42,1.52-.63,2.4-.63.77,0,1.48.18,2.14.53.66.35,1.16.82,1.51,1.4v-5.22h1.66v13.32h-1.66v-1.85c-.32.59-.8,1.07-1.44,1.45s-1.38.57-2.23.57-1.67-.22-2.39-.65c-.71-.43-1.27-1.04-1.68-1.82s-.61-1.67-.61-2.66.2-1.89.61-2.66ZM898.46,290c-.3-.55-.71-.98-1.21-1.27-.51-.29-1.07-.44-1.68-.44s-1.17.14-1.67.43-.91.71-1.21,1.26-.45,1.2-.45,1.94.15,1.41.45,1.97.7.98,1.21,1.28,1.06.44,1.67.44,1.17-.15,1.68-.44c.51-.29.92-.72,1.21-1.28s.45-1.21.45-1.95-.15-1.39-.45-1.94Z"/>
    </g>
    <path class="cls-13" d="M908.83,169.6h100"/>
    <g>
      <circle class="cls-7" cx="1096.05" cy="171.15" r="48"/>
      <g class="cls-6">
        <path class="cls-2" d="M1077.47,161.85c1.42-2.22,3.77-3.33,7.06-3.33s5.64,1.11,7.06,3.33c1.42,2.22,2.12,5.29,2.12,9.21s-.71,7.04-2.12,9.28c-1.42,2.24-3.77,3.37-7.06,3.37s-5.64-1.12-7.06-3.37c-1.42-2.24-2.12-5.34-2.12-9.28s.71-6.99,2.12-9.21ZM1088.69,166.83c-.22-1.14-.65-2.08-1.29-2.8s-1.6-1.09-2.87-1.09-2.23.36-2.87,1.09-1.08,1.66-1.29,2.8c-.22,1.15-.32,2.56-.32,4.23s.1,3.17.3,4.33c.21,1.17.63,2.11,1.29,2.82.66.71,1.62,1.07,2.89,1.07s2.23-.36,2.89-1.07c.66-.71,1.09-1.65,1.29-2.82.2-1.17.31-2.61.31-4.33s-.11-3.09-.32-4.23Z"/>
        <path class="cls-2" d="M1097.1,178.95v-3.74l11.12-15.91h5.54v15.5h2.99v4.15h-2.99v4.83h-4.76v-4.83h-11.9ZM1109.31,164.4l-6.97,10.4h6.97v-10.4Z"/>
      </g>
    </g>
    <g class="cls-6">
      <path class="cls-14" d="M1031.35,244.77c-1.01-.43-1.82-1.06-2.41-1.87-.59-.81-.89-1.78-.91-2.89h3.9c.05.75.32,1.33.79,1.77.48.43,1.13.65,1.96.65s1.52-.2,2-.61.73-.94.73-1.6c0-.54-.17-.98-.49-1.33s-.74-.62-1.23-.82-1.17-.42-2.04-.66c-1.18-.35-2.14-.69-2.87-1.03-.74-.34-1.37-.85-1.9-1.53-.53-.68-.79-1.6-.79-2.74,0-1.07.27-2.01.81-2.81.54-.8,1.29-1.41,2.26-1.83.97-.42,2.08-.64,3.33-.64,1.87,0,3.39.46,4.56,1.37s1.82,2.18,1.94,3.81h-4c-.04-.62-.3-1.14-.79-1.55-.49-.41-1.15-.61-1.96-.61-.71,0-1.28.18-1.7.55-.42.36-.64.89-.64,1.59,0,.49.16.89.48,1.21.32.32.72.58,1.2.78.48.2,1.15.43,2.01.69,1.18.35,2.14.69,2.89,1.04s1.39.87,1.92,1.56c.54.69.81,1.6.81,2.73,0,.97-.25,1.87-.75,2.7-.5.83-1.24,1.5-2.21,1.99-.97.49-2.12.74-3.46.74s-2.41-.22-3.42-.65Z"/>
      <path class="cls-14" d="M1057.63,239.12h-10.53c.09,1.04.45,1.86,1.09,2.44.64.59,1.43.88,2.37.88,1.35,0,2.31-.58,2.89-1.74h3.93c-.42,1.39-1.21,2.53-2.39,3.42-1.18.89-2.63,1.34-4.34,1.34-1.39,0-2.63-.31-3.73-.92-1.1-.61-1.96-1.49-2.57-2.61s-.92-2.43-.92-3.9.3-2.8.91-3.93c.61-1.13,1.46-1.99,2.55-2.6,1.09-.61,2.35-.91,3.77-.91s2.6.29,3.68.88c1.08.59,1.92,1.43,2.52,2.51.6,1.08.9,2.33.9,3.73,0,.52-.04.99-.1,1.4ZM1053.96,236.68c-.02-.94-.36-1.69-1.01-2.25-.66-.56-1.46-.85-2.42-.85-.9,0-1.66.27-2.28.82s-.99,1.3-1.13,2.28h6.84Z"/>
      <path class="cls-14" d="M1063.03,244.54c-1.11-.61-1.98-1.49-2.61-2.61-.63-1.13-.95-2.43-.95-3.9s.33-2.77.97-3.9c.65-1.13,1.54-2,2.67-2.61s2.38-.92,3.77-.92,2.64.31,3.77.92,2.02,1.49,2.67,2.61c.65,1.13.98,2.43.98,3.9s-.33,2.77-1,3.9c-.67,1.13-1.57,2-2.7,2.61-1.14.62-2.41.92-3.81.92s-2.63-.31-3.74-.92ZM1068.64,241.81c.58-.32,1.04-.8,1.39-1.44.35-.64.52-1.42.52-2.34,0-1.37-.36-2.42-1.08-3.16-.72-.74-1.6-1.1-2.64-1.1s-1.91.37-2.61,1.1c-.7.74-1.05,1.79-1.05,3.16s.34,2.42,1.03,3.16c.68.74,1.55,1.1,2.59,1.1.66,0,1.28-.16,1.86-.48Z"/>
      <path class="cls-14" d="M1085.81,244.54c-1.11-.61-1.98-1.49-2.61-2.61-.63-1.13-.95-2.43-.95-3.9s.33-2.77.97-3.9c.65-1.13,1.54-2,2.67-2.61s2.38-.92,3.77-.92,2.64.31,3.77.92,2.02,1.49,2.67,2.61c.65,1.13.98,2.43.98,3.9s-.33,2.77-1,3.9c-.67,1.13-1.57,2-2.7,2.61-1.14.62-2.41.92-3.81.92s-2.63-.31-3.74-.92ZM1086.21,226.71c.56-.56,1.28-.84,2.15-.84.36,0,.68.06.96.17.28.11.59.27.94.48.52.33.95.49,1.3.49.64,0,1.01-.37,1.12-1.12h1.95c-.16,1.14-.52,2-1.08,2.56-.56.56-1.28.84-2.14.84-.36,0-.69-.06-.96-.17-.28-.11-.59-.27-.94-.48-.5-.35-.94-.52-1.3-.52-.64,0-1.02.38-1.14,1.14h-1.92c.16-1.14.52-2,1.08-2.56ZM1091.41,241.81c.58-.32,1.04-.8,1.39-1.44.35-.64.52-1.42.52-2.34,0-1.37-.36-2.42-1.08-3.16-.72-.74-1.6-1.1-2.64-1.1s-1.91.37-2.61,1.1c-.7.74-1.05,1.79-1.05,3.16s.34,2.42,1.03,3.16c.68.74,1.55,1.1,2.59,1.1.66,0,1.28-.16,1.86-.48Z"/>
      <path class="cls-14" d="M1099.99,228.5c-.42-.41-.64-.91-.64-1.52s.21-1.11.64-1.52c.42-.41.96-.61,1.6-.61s1.17.2,1.6.61c.42.41.64.92.64,1.52s-.21,1.11-.64,1.52c-.42.41-.96.61-1.6.61s-1.17-.2-1.6-.61ZM1103.38,230.83v14.4h-3.64v-14.4h3.64Z"/>
      <path class="cls-14" d="M1115.45,231.23c.81.42,1.46.97,1.92,1.65v-2.05h3.67v14.51c0,1.33-.27,2.53-.81,3.58-.54,1.05-1.34,1.88-2.42,2.5-1.08.62-2.38.92-3.9.92-2.05,0-3.72-.48-5.03-1.43s-2.05-2.25-2.22-3.9h3.61c.19.66.6,1.18,1.23,1.57.63.39,1.4.58,2.3.58,1.06,0,1.92-.32,2.57-.95s.99-1.59.99-2.87v-2.24c-.47.68-1.11,1.24-1.94,1.69-.82.45-1.76.68-2.82.68-1.21,0-2.32-.31-3.33-.94-1.01-.62-1.8-1.5-2.38-2.64-.58-1.13-.87-2.44-.87-3.91s.29-2.75.87-3.87c.58-1.13,1.37-1.99,2.37-2.6,1-.61,2.11-.91,3.34-.91,1.07,0,2.02.21,2.83.64ZM1116.85,235.76c-.35-.63-.81-1.12-1.4-1.46-.59-.34-1.22-.51-1.9-.51s-1.3.17-1.87.49c-.57.33-1.04.81-1.39,1.44-.36.63-.53,1.38-.53,2.25s.18,1.62.53,2.28c.35.65.82,1.15,1.4,1.49.58.35,1.2.52,1.86.52s1.31-.17,1.9-.51c.59-.34,1.06-.82,1.4-1.46s.52-1.39.52-2.28-.17-1.64-.52-2.27Z"/>
      <path class="cls-14" d="M1137.89,239.12h-10.53c.09,1.04.45,1.86,1.09,2.44.64.59,1.43.88,2.37.88,1.35,0,2.31-.58,2.89-1.74h3.93c-.42,1.39-1.21,2.53-2.39,3.42-1.18.89-2.63,1.34-4.34,1.34-1.39,0-2.63-.31-3.73-.92-1.1-.61-1.96-1.49-2.57-2.61s-.92-2.43-.92-3.9.3-2.8.91-3.93,1.46-1.99,2.55-2.6c1.09-.61,2.35-.91,3.77-.91s2.6.29,3.68.88c1.08.59,1.92,1.43,2.52,2.51.6,1.08.9,2.33.9,3.73,0,.52-.04.99-.1,1.4ZM1134.22,236.68c-.02-.94-.36-1.69-1.01-2.25-.66-.56-1.46-.85-2.42-.85-.9,0-1.66.27-2.27.82-.62.55-.99,1.3-1.13,2.28h6.84Z"/>
      <path class="cls-14" d="M1142.98,244.83c-.94-.42-1.68-1-2.22-1.73-.55-.73-.85-1.53-.9-2.42h3.67c.07.55.34,1.01.82,1.38.48.36,1.07.55,1.78.55s1.24-.14,1.62-.42c.39-.28.59-.63.59-1.07,0-.47-.24-.82-.72-1.05-.48-.23-1.23-.49-2.27-.77-1.08-.26-1.96-.53-2.64-.81-.68-.28-1.27-.7-1.77-1.27s-.74-1.34-.74-2.31c0-.8.23-1.52.69-2.18.46-.66,1.12-1.18,1.98-1.56.86-.38,1.87-.57,3.03-.57,1.72,0,3.08.43,4.11,1.29,1.02.86,1.59,2.01,1.69,3.47h-3.48c-.05-.57-.29-1.03-.71-1.37s-.99-.51-1.7-.51c-.66,0-1.17.12-1.52.36-.36.24-.53.58-.53,1.01,0,.49.24.85.73,1.11.48.25,1.24.51,2.26.77,1.04.26,1.9.53,2.57.81.68.28,1.26.71,1.75,1.29.49.58.75,1.35.77,2.3,0,.83-.23,1.58-.69,2.24-.46.66-1.12,1.17-1.98,1.55-.86.37-1.86.56-3,.56s-2.24-.21-3.17-.64Z"/>
      <path class="cls-14" d="M1159.05,233.82v6.97c0,.49.12.84.35,1.05s.63.32,1.18.32h1.69v3.07h-2.29c-3.07,0-4.6-1.49-4.6-4.47v-6.94h-1.72v-2.99h1.72v-3.56h3.67v3.56h3.22v2.99h-3.22Z"/>
      <path class="cls-14" d="M1165.15,228.5c-.42-.41-.64-.91-.64-1.52s.21-1.11.64-1.52c.42-.41.96-.61,1.6-.61s1.17.2,1.6.61c.42.41.64.92.64,1.52s-.21,1.11-.64,1.52c-.42.41-.96.61-1.6.61s-1.17-.2-1.6-.61ZM1168.54,230.83v14.4h-3.64v-14.4h3.64Z"/>
    </g>
    <g class="cls-6">
      <path class="cls-5" d="M1023.2,275.3l-2.99-5.13h-1.98v5.13h-1.64v-12.55h4.05c.95,0,1.75.16,2.4.49.65.32,1.14.76,1.47,1.31.32.55.49,1.18.49,1.89,0,.86-.25,1.63-.75,2.29-.5.66-1.25,1.1-2.24,1.31l3.15,5.26h-1.96ZM1018.23,268.85h2.41c.89,0,1.55-.22,2-.66.44-.44.67-1.02.67-1.76s-.22-1.32-.66-1.73c-.44-.41-1.11-.61-2.01-.61h-2.41v4.75Z"/>
      <path class="cls-5" d="M1027.53,267.67c.41-.76.97-1.35,1.68-1.77.71-.42,1.51-.63,2.39-.63s1.61.19,2.25.56c.64.37,1.11.84,1.42,1.4v-1.8h1.66v9.86h-1.66v-1.84c-.32.58-.81,1.05-1.45,1.43-.64.38-1.39.57-2.24.57s-1.67-.22-2.38-.65c-.71-.43-1.27-1.04-1.67-1.82s-.61-1.67-.61-2.66.2-1.89.61-2.66ZM1034.82,268.4c-.3-.55-.71-.98-1.21-1.27-.51-.29-1.07-.44-1.68-.44s-1.17.14-1.67.43-.91.71-1.21,1.26-.45,1.2-.45,1.94.15,1.41.45,1.97.7.98,1.21,1.28,1.06.44,1.67.44,1.17-.15,1.68-.44c.51-.29.92-.72,1.21-1.28s.45-1.21.45-1.95-.15-1.39-.45-1.94Z"/>
      <path class="cls-5" d="M1045.21,275.3l-3.87-4.36v4.36h-1.64v-13.32h1.64v7.83l3.8-4.37h2.29l-4.64,4.91,4.66,4.95h-2.23Z"/>
      <path class="cls-5" d="M1057.92,270.98h-7.88c.06.97.39,1.73,1,2.28.61.55,1.34.82,2.21.82.71,0,1.3-.17,1.77-.5.47-.33.81-.77,1-1.32h1.76c-.26.95-.79,1.72-1.58,2.31-.79.59-1.78.89-2.95.89-.94,0-1.77-.21-2.51-.63-.74-.42-1.32-1.02-1.74-1.79-.42-.77-.63-1.67-.63-2.69s.2-1.91.61-2.68c.41-.77.98-1.36,1.72-1.77.74-.41,1.59-.62,2.55-.62s1.76.2,2.48.61c.72.41,1.27.97,1.66,1.68.39.71.59,1.52.59,2.42,0,.31-.02.64-.05.99ZM1055.87,268.04c-.28-.45-.65-.79-1.12-1.03-.47-.23-1-.35-1.58-.35-.83,0-1.53.26-2.12.79s-.92,1.26-1,2.2h6.23c0-.62-.14-1.16-.41-1.61Z"/>
      <path class="cls-5" d="M1067.85,266.34c.74.73,1.12,1.77,1.12,3.14v5.81h-1.62v-5.58c0-.98-.25-1.74-.74-2.26-.49-.52-1.16-.78-2.02-.78s-1.55.27-2.06.81c-.51.54-.77,1.33-.77,2.36v5.45h-1.64v-9.86h1.64v1.4c.32-.5.77-.89,1.32-1.17s1.17-.41,1.84-.41c1.2,0,2.17.36,2.92,1.09Z"/>
      <path class="cls-5" d="M1071.65,267.67c.41-.76.97-1.35,1.68-1.77.71-.42,1.51-.63,2.4-.63.77,0,1.48.18,2.14.53.66.35,1.16.82,1.51,1.4v-5.22h1.66v13.32h-1.66v-1.85c-.32.59-.8,1.07-1.44,1.45-.64.38-1.38.57-2.23.57s-1.67-.22-2.38-.65c-.71-.43-1.28-1.04-1.68-1.82-.41-.78-.61-1.67-.61-2.66s.2-1.89.61-2.66ZM1078.94,268.4c-.3-.55-.71-.98-1.21-1.27s-1.07-.44-1.68-.44-1.17.14-1.67.43-.91.71-1.21,1.26-.45,1.2-.45,1.94.15,1.41.45,1.97.7.98,1.21,1.28,1.06.44,1.67.44,1.17-.15,1.68-.44.92-.72,1.21-1.28.45-1.21.45-1.95-.15-1.39-.45-1.94Z"/>
      <path class="cls-5" d="M1083.82,267.67c.41-.76.97-1.35,1.68-1.77.71-.42,1.51-.63,2.38-.63s1.61.19,2.25.56,1.11.84,1.42,1.4v-1.8h1.66v9.86h-1.66v-1.84c-.32.58-.81,1.05-1.45,1.43-.64.38-1.39.57-2.24.57s-1.67-.22-2.38-.65c-.71-.43-1.27-1.04-1.67-1.82-.41-.78-.61-1.67-.61-2.66s.2-1.89.61-2.66ZM1091.11,268.4c-.3-.55-.71-.98-1.21-1.27s-1.07-.44-1.68-.44-1.17.14-1.67.43-.91.71-1.21,1.26-.45,1.2-.45,1.94.15,1.41.45,1.97.7.98,1.21,1.28,1.06.44,1.67.44,1.17-.15,1.68-.44.92-.72,1.21-1.28.45-1.21.45-1.95-.15-1.39-.45-1.94Z"/>
      <path class="cls-5" d="M1103.88,265.84c.64-.38,1.39-.57,2.24-.57s1.67.21,2.39.63c.71.42,1.27,1.01,1.68,1.77.41.76.61,1.65.61,2.66s-.2,1.88-.61,2.66-.97,1.39-1.68,1.82c-.71.43-1.51.65-2.39.65s-1.58-.19-2.22-.57-1.13-.85-1.47-1.41v6.5h-1.64v-14.54h1.64v1.82c.32-.56.81-1.04,1.45-1.41ZM1108.68,268.39c-.3-.55-.71-.97-1.21-1.26-.51-.29-1.07-.43-1.68-.43s-1.16.15-1.67.44-.92.72-1.22,1.28c-.31.56-.46,1.2-.46,1.93s.15,1.4.46,1.95c.31.56.71.98,1.22,1.28s1.07.44,1.67.44,1.17-.15,1.68-.44c.51-.29.91-.72,1.21-1.28.3-.56.45-1.21.45-1.97s-.15-1.39-.45-1.94Z"/>
      <path class="cls-5" d="M1115.83,265.72c.53-.31,1.19-.47,1.95-.47v1.69h-.43c-1.84,0-2.75,1-2.75,2.99v5.36h-1.64v-9.86h1.64v1.6c.29-.56.7-1,1.23-1.31Z"/>
      <path class="cls-5" d="M1121.47,274.83c-.75-.42-1.34-1.02-1.76-1.79-.43-.77-.64-1.67-.64-2.69s.22-1.9.66-2.67c.44-.77,1.03-1.37,1.79-1.78.76-.41,1.6-.62,2.54-.62s1.78.21,2.54.62c.76.41,1.35,1.01,1.79,1.77.44.77.66,1.66.66,2.68s-.22,1.92-.67,2.69c-.45.77-1.06,1.37-1.83,1.79s-1.62.63-2.56.63-1.76-.21-2.51-.63ZM1125.63,273.61c.52-.28.93-.69,1.25-1.24.32-.55.48-1.22.48-2.02s-.16-1.46-.47-2.02c-.31-.55-.72-.96-1.22-1.23-.5-.27-1.05-.4-1.64-.4s-1.15.13-1.65.4c-.5.27-.9.68-1.2,1.23s-.45,1.22-.45,2.02.15,1.48.44,2.03c.29.55.69.96,1.18,1.23.49.27,1.03.4,1.62.4s1.14-.14,1.66-.41Z"/>
      <path class="cls-5" d="M1132.89,277.44c0,.88-.22,1.52-.67,1.93-.44.41-1.09.61-1.94.61h-.95v-1.39h.68c.46,0,.78-.09.96-.27.19-.18.28-.49.28-.92v-11.97h1.64v12.01ZM1131.29,263.51c-.21-.22-.31-.48-.31-.79s.1-.58.31-.79.47-.32.78-.32.57.11.78.32.32.48.32.79-.11.58-.32.79-.47.32-.78.32-.57-.11-.78-.32Z"/>
      <path class="cls-5" d="M1144.61,270.98h-7.88c.06.97.39,1.73,1,2.28.61.55,1.34.82,2.21.82.71,0,1.3-.17,1.77-.5.47-.33.81-.77,1-1.32h1.76c-.26.95-.79,1.72-1.58,2.31-.79.59-1.78.89-2.95.89-.94,0-1.77-.21-2.51-.63s-1.32-1.02-1.74-1.79c-.42-.77-.63-1.67-.63-2.69s.2-1.91.61-2.68.98-1.36,1.72-1.77c.74-.41,1.59-.62,2.55-.62s1.76.2,2.48.61,1.28.97,1.67,1.68c.39.71.58,1.52.58,2.42,0,.31-.02.64-.05.99ZM1142.55,268.04c-.28-.45-.65-.79-1.12-1.03-.47-.23-1-.35-1.57-.35-.83,0-1.53.26-2.12.79s-.92,1.26-1,2.2h6.23c0-.62-.14-1.16-.41-1.61Z"/>
      <path class="cls-5" d="M1152.33,275.3l-3.87-4.36v4.36h-1.64v-13.32h1.64v7.83l3.8-4.37h2.29l-4.64,4.91,4.66,4.95h-2.23Z"/>
      <path class="cls-5" d="M1158.09,266.78v5.81c0,.48.1.82.31,1.02.2.2.56.3,1.06.3h1.21v1.39h-1.48c-.91,0-1.6-.21-2.05-.63s-.68-1.11-.68-2.07v-5.81h-1.28v-1.35h1.28v-2.48h1.64v2.48h2.57v1.35h-2.57Z"/>
      <path class="cls-5" d="M1162.7,263.51c-.22-.22-.32-.48-.32-.79s.11-.58.32-.79.48-.32.79-.32.55.11.76.32.32.48.32.79-.11.58-.32.79-.46.32-.76.32-.58-.11-.79-.32ZM1164.28,265.43v9.86h-1.64v-9.86h1.64Z"/>
      <path class="cls-5" d="M1168.71,261.98v13.32h-1.64v-13.32h1.64Z"/>
      <path class="cls-5" d="M1180.44,270.98h-7.88c.06.97.39,1.73,1,2.28.61.55,1.34.82,2.21.82.71,0,1.3-.17,1.77-.5.47-.33.81-.77,1-1.32h1.76c-.26.95-.79,1.72-1.58,2.31-.79.59-1.78.89-2.95.89-.94,0-1.77-.21-2.51-.63-.74-.42-1.32-1.02-1.74-1.79-.42-.77-.63-1.67-.63-2.69s.2-1.91.61-2.68c.41-.77.98-1.36,1.72-1.77.74-.41,1.59-.62,2.55-.62s1.76.2,2.48.61c.72.41,1.27.97,1.66,1.68.39.71.59,1.52.59,2.42,0,.31-.02.64-.05.99ZM1178.39,268.04c-.28-.45-.65-.79-1.12-1.03-.47-.23-1-.35-1.58-.35-.83,0-1.53.26-2.12.79s-.92,1.26-1,2.2h6.23c0-.62-.14-1.16-.41-1.61Z"/>
      <path class="cls-5" d="M1184.35,273.03l-2.02,4.84h-1.1l1.31-4.84h1.8Z"/>
      <path class="cls-5" d="M1000.62,287.03v9.86h-1.64v-1.46c-.31.5-.75.9-1.31,1.18-.56.28-1.17.42-1.84.42-.77,0-1.46-.16-2.07-.48-.61-.32-1.09-.79-1.45-1.43-.35-.64-.53-1.41-.53-2.32v-5.78h1.62v5.56c0,.97.25,1.72.74,2.24.49.52,1.16.78,2.02.78s1.57-.27,2.07-.81c.5-.54.76-1.33.76-2.36v-5.42h1.64ZM994.13,285.43c-.19-.18-.28-.4-.28-.67s.09-.49.28-.67.41-.28.67-.28.47.09.66.28c.19.19.28.41.28.67s-.09.49-.28.67c-.19.18-.41.27-.66.27s-.49-.09-.67-.27ZM997.05,285.43c-.18-.18-.27-.4-.27-.67s.09-.49.27-.67c.18-.19.4-.28.67-.28s.49.09.68.28.28.41.28.67-.09.49-.28.67c-.19.18-.41.27-.68.27s-.49-.09-.67-.27Z"/>
      <path class="cls-5" d="M1005.03,283.58v13.32h-1.64v-13.32h1.64Z"/>
      <path class="cls-5" d="M1016.76,292.58h-7.88c.06.97.39,1.73,1,2.28.61.55,1.34.82,2.21.82.71,0,1.3-.17,1.77-.5.47-.33.81-.77,1-1.32h1.76c-.26.95-.79,1.72-1.58,2.31-.79.59-1.78.89-2.95.89-.94,0-1.77-.21-2.51-.63-.74-.42-1.32-1.02-1.74-1.79-.42-.77-.63-1.67-.63-2.69s.2-1.91.61-2.68c.41-.77.98-1.36,1.72-1.77.74-.41,1.59-.62,2.55-.62s1.76.2,2.48.61c.72.41,1.27.97,1.66,1.68.39.71.59,1.52.59,2.42,0,.31-.02.64-.05.99ZM1014.71,289.63c-.28-.45-.65-.79-1.12-1.03-.47-.23-1-.35-1.58-.35-.83,0-1.53.26-2.12.79s-.92,1.26-1,2.2h6.23c0-.62-.14-1.16-.41-1.61Z"/>
      <path class="cls-5" d="M1020.43,296.67c-.6-.26-1.07-.62-1.42-1.08-.35-.46-.54-.99-.58-1.59h1.69c.05.49.28.89.69,1.21.41.31.96.47,1.63.47.62,0,1.12-.14,1.48-.41.36-.28.54-.62.54-1.04s-.19-.75-.58-.96-.98-.42-1.78-.62c-.73-.19-1.33-.39-1.79-.58-.46-.2-.86-.49-1.19-.88-.33-.39-.5-.9-.5-1.54,0-.5.15-.97.45-1.39.3-.42.73-.75,1.28-1,.55-.25,1.18-.37,1.89-.37,1.09,0,1.97.28,2.65.83.67.55,1.03,1.31,1.08,2.27h-1.64c-.04-.52-.24-.93-.62-1.24s-.88-.47-1.52-.47c-.59,0-1.06.13-1.4.38-.35.25-.52.58-.52.99,0,.32.11.59.32.8s.47.38.79.5c.32.13.76.27,1.32.42.71.19,1.28.38,1.73.57.44.19.83.46,1.14.84.32.37.48.86.5,1.46,0,.54-.15,1.03-.45,1.46-.3.43-.72.77-1.27,1.02s-1.17.37-1.88.37c-.76,0-1.43-.13-2.03-.39Z"/>
      <path class="cls-5" d="M1028.37,289.27c.41-.76.97-1.35,1.68-1.77.71-.42,1.51-.63,2.38-.63s1.61.19,2.25.56,1.11.84,1.42,1.4v-1.8h1.66v9.86h-1.66v-1.84c-.32.58-.81,1.05-1.45,1.43-.64.38-1.39.57-2.24.57s-1.67-.22-2.38-.65c-.71-.43-1.27-1.04-1.67-1.82-.41-.78-.61-1.67-.61-2.66s.2-1.89.61-2.66ZM1035.66,290c-.3-.55-.71-.98-1.21-1.27s-1.07-.44-1.68-.44-1.17.14-1.67.43-.91.71-1.21,1.26-.45,1.2-.45,1.94.15,1.41.45,1.97.7.98,1.21,1.28,1.06.44,1.67.44,1.17-.15,1.68-.44.92-.72,1.21-1.28.45-1.21.45-1.95-.15-1.39-.45-1.94Z"/>
      <path class="cls-5" d="M1048.26,287.94c.74.73,1.12,1.77,1.12,3.14v5.81h-1.62v-5.58c0-.98-.25-1.74-.74-2.26-.49-.52-1.16-.78-2.02-.78s-1.55.27-2.06.81c-.51.54-.76,1.33-.76,2.36v5.45h-1.64v-9.86h1.64v1.4c.32-.5.76-.89,1.32-1.17.56-.28,1.17-.41,1.84-.41,1.2,0,2.17.36,2.92,1.09Z"/>
      <path class="cls-5" d="M1052.06,289.27c.41-.76.97-1.35,1.68-1.77.71-.42,1.52-.63,2.4-.63.77,0,1.48.18,2.14.53.66.35,1.16.82,1.51,1.4v-5.22h1.66v13.32h-1.66v-1.85c-.32.59-.8,1.07-1.44,1.45s-1.38.57-2.23.57-1.67-.22-2.39-.65c-.71-.43-1.27-1.04-1.68-1.82s-.61-1.67-.61-2.66.2-1.89.61-2.66ZM1059.35,290c-.3-.55-.71-.98-1.21-1.27-.51-.29-1.07-.44-1.68-.44s-1.17.14-1.67.43-.91.71-1.21,1.26-.45,1.2-.45,1.94.15,1.41.45,1.97.7.98,1.21,1.28,1.06.44,1.67.44,1.17-.15,1.68-.44c.51-.29.92-.72,1.21-1.28s.45-1.21.45-1.95-.15-1.39-.45-1.94Z"/>
      <path class="cls-5" d="M1073.17,292.58h-7.88c.06.97.39,1.73,1,2.28.61.55,1.34.82,2.21.82.71,0,1.3-.17,1.77-.5.47-.33.81-.77,1-1.32h1.76c-.26.95-.79,1.72-1.58,2.31-.79.59-1.78.89-2.95.89-.94,0-1.77-.21-2.51-.63s-1.32-1.02-1.74-1.79c-.42-.77-.63-1.67-.63-2.69s.2-1.91.61-2.68.98-1.36,1.72-1.77c.74-.41,1.59-.62,2.55-.62s1.76.2,2.48.61,1.28.97,1.67,1.68c.39.71.58,1.52.58,2.42,0,.31-.02.64-.05.99ZM1071.12,289.63c-.28-.45-.65-.79-1.12-1.03-.47-.23-1-.35-1.57-.35-.83,0-1.53.26-2.12.79s-.92,1.26-1,2.2h6.23c0-.62-.14-1.16-.41-1.61Z"/>
      <path class="cls-5" d="M1077.03,283.58v13.32h-1.64v-13.32h1.64Z"/>
      <path class="cls-5" d="M1088.76,292.58h-7.88c.06.97.39,1.73,1,2.28.61.55,1.34.82,2.21.82.71,0,1.3-.17,1.77-.5.47-.33.81-.77,1-1.32h1.76c-.26.95-.79,1.72-1.58,2.31-.79.59-1.78.89-2.95.89-.94,0-1.77-.21-2.51-.63-.74-.42-1.32-1.02-1.74-1.79-.42-.77-.63-1.67-.63-2.69s.2-1.91.61-2.68c.41-.77.98-1.36,1.72-1.77.74-.41,1.59-.62,2.55-.62s1.76.2,2.48.61c.72.41,1.27.97,1.66,1.68.39.71.59,1.52.59,2.42,0,.31-.02.64-.05.99ZM1086.71,289.63c-.28-.45-.65-.79-1.12-1.03-.47-.23-1-.35-1.58-.35-.83,0-1.53.26-2.12.79s-.92,1.26-1,2.2h6.23c0-.62-.14-1.16-.41-1.61Z"/>
      <path class="cls-5" d="M1099.45,295.39l3.06-8.35h1.75l-3.87,9.86h-1.91l-3.87-9.86h1.76l3.08,8.35Z"/>
      <path class="cls-5" d="M1107.67,296.43c-.75-.42-1.34-1.02-1.76-1.79-.43-.77-.64-1.67-.64-2.69s.22-1.9.66-2.67,1.04-1.37,1.79-1.78,1.6-.62,2.54-.62,1.78.21,2.54.62,1.35,1.01,1.79,1.77c.44.77.66,1.66.66,2.68s-.23,1.92-.68,2.69c-.45.77-1.06,1.37-1.83,1.79-.77.42-1.62.63-2.56.63s-1.76-.21-2.51-.63ZM1111.84,295.21c.52-.28.93-.69,1.25-1.24.32-.55.48-1.22.48-2.02s-.16-1.46-.47-2.02c-.31-.55-.72-.96-1.22-1.23-.5-.27-1.05-.4-1.64-.4s-1.15.13-1.65.4c-.5.27-.9.68-1.2,1.23s-.45,1.22-.45,2.02.15,1.48.44,2.03.69.96,1.18,1.23c.49.27,1.03.4,1.62.4s1.14-.14,1.66-.41ZM1108.23,284.44c.32-.32.72-.49,1.2-.49.23,0,.42.04.58.12s.36.19.58.33c.17.12.32.21.45.28s.28.1.43.1c.2,0,.38-.07.52-.2.14-.13.23-.32.27-.58h.94c-.07.6-.27,1.06-.59,1.39-.32.32-.73.49-1.21.49-.23,0-.43-.04-.6-.12s-.37-.2-.58-.35c-.19-.12-.34-.21-.46-.27-.11-.06-.25-.09-.41-.09-.2,0-.38.07-.51.2-.14.13-.22.33-.26.59h-.95c.08-.61.29-1.08.6-1.4Z"/>
      <path class="cls-5" d="M1117.45,285.11c-.22-.22-.32-.48-.32-.79s.11-.58.32-.79.48-.32.79-.32.55.11.76.32.32.48.32.79-.11.58-.32.79-.46.32-.76.32-.58-.11-.79-.32ZM1119.04,287.03v9.86h-1.64v-9.86h1.64Z"/>
      <path class="cls-5" d="M1129.5,287.32c.53-.31,1.19-.47,1.95-.47v1.69h-.43c-1.84,0-2.75,1-2.75,2.99v5.36h-1.64v-9.86h1.64v1.6c.29-.56.7-1,1.23-1.31Z"/>
      <path class="cls-5" d="M1142.29,292.58h-7.88c.06.97.39,1.73,1,2.28.61.55,1.34.82,2.21.82.71,0,1.3-.17,1.77-.5.47-.33.81-.77,1-1.32h1.76c-.26.95-.79,1.72-1.58,2.31-.79.59-1.78.89-2.95.89-.94,0-1.77-.21-2.51-.63-.74-.42-1.32-1.02-1.74-1.79-.42-.77-.63-1.67-.63-2.69s.2-1.91.61-2.68c.41-.77.98-1.36,1.72-1.77.74-.41,1.59-.62,2.55-.62s1.76.2,2.48.61c.72.41,1.27.97,1.66,1.68.39.71.59,1.52.59,2.42,0,.31-.02.64-.05.99ZM1140.24,289.63c-.28-.45-.65-.79-1.12-1.03-.47-.23-1-.35-1.58-.35-.83,0-1.53.26-2.12.79s-.92,1.26-1,2.2h6.23c0-.62-.14-1.16-.41-1.61Z"/>
      <path class="cls-5" d="M1145.96,296.67c-.6-.26-1.07-.62-1.42-1.08-.35-.46-.54-.99-.58-1.59h1.69c.05.49.28.89.69,1.21.41.31.96.47,1.63.47.62,0,1.12-.14,1.48-.41.36-.28.54-.62.54-1.04s-.19-.75-.58-.96c-.38-.21-.98-.42-1.78-.62-.73-.19-1.33-.39-1.79-.58-.46-.2-.86-.49-1.19-.88-.33-.39-.5-.9-.5-1.54,0-.5.15-.97.45-1.39s.73-.75,1.28-1c.55-.25,1.18-.37,1.89-.37,1.09,0,1.97.28,2.65.83.67.55,1.03,1.31,1.08,2.27h-1.64c-.04-.52-.24-.93-.62-1.24s-.88-.47-1.52-.47c-.59,0-1.06.13-1.4.38s-.52.58-.52.99c0,.32.1.59.31.8s.47.38.79.5.76.27,1.32.42c.71.19,1.28.38,1.73.57.44.19.83.46,1.14.84.32.37.48.86.5,1.46,0,.54-.15,1.03-.45,1.46-.3.43-.72.77-1.27,1.02s-1.17.37-1.88.37c-.76,0-1.43-.13-2.03-.39Z"/>
      <path class="cls-5" d="M1155.36,296.67c-.6-.26-1.07-.62-1.42-1.08-.35-.46-.54-.99-.58-1.59h1.69c.05.49.28.89.69,1.21.41.31.96.47,1.63.47.62,0,1.12-.14,1.48-.41.36-.28.54-.62.54-1.04s-.19-.75-.58-.96c-.38-.21-.98-.42-1.78-.62-.73-.19-1.33-.39-1.79-.58-.46-.2-.86-.49-1.19-.88-.33-.39-.5-.9-.5-1.54,0-.5.15-.97.45-1.39s.73-.75,1.28-1c.55-.25,1.18-.37,1.89-.37,1.09,0,1.97.28,2.65.83.67.55,1.03,1.31,1.08,2.27h-1.64c-.04-.52-.24-.93-.62-1.24s-.88-.47-1.52-.47c-.59,0-1.06.13-1.4.38s-.52.58-.52.99c0,.32.1.59.31.8s.47.38.79.5.76.27,1.32.42c.71.19,1.28.38,1.73.57.44.19.83.46,1.14.84.32.37.48.86.5,1.46,0,.54-.15,1.03-.45,1.46-.3.43-.72.77-1.27,1.02s-1.17.37-1.88.37c-.76,0-1.43-.13-2.03-.39Z"/>
      <path class="cls-5" d="M1172.05,287.03v9.86h-1.64v-1.46c-.31.5-.75.9-1.31,1.18-.56.28-1.17.42-1.84.42-.77,0-1.46-.16-2.07-.48-.61-.32-1.09-.79-1.45-1.43-.35-.64-.53-1.41-.53-2.32v-5.78h1.62v5.56c0,.97.25,1.72.74,2.24.49.52,1.16.78,2.02.78s1.57-.27,2.07-.81c.5-.54.76-1.33.76-2.36v-5.42h1.64Z"/>
      <path class="cls-5" d="M1177.69,287.32c.53-.31,1.19-.47,1.95-.47v1.69h-.43c-1.84,0-2.75,1-2.75,2.99v5.36h-1.64v-9.86h1.64v1.6c.29-.56.7-1,1.23-1.31Z"/>
      <path class="cls-5" d="M1182.99,296.67c-.6-.26-1.07-.62-1.42-1.08-.35-.46-.54-.99-.58-1.59h1.69c.05.49.28.89.69,1.21.41.31.96.47,1.63.47.62,0,1.12-.14,1.48-.41.36-.28.54-.62.54-1.04s-.19-.75-.58-.96-.98-.42-1.78-.62c-.73-.19-1.33-.39-1.79-.58-.46-.2-.86-.49-1.19-.88-.33-.39-.5-.9-.5-1.54,0-.5.15-.97.45-1.39.3-.42.73-.75,1.28-1,.55-.25,1.18-.37,1.89-.37,1.09,0,1.97.28,2.65.83.67.55,1.03,1.31,1.08,2.27h-1.64c-.04-.52-.24-.93-.62-1.24s-.88-.47-1.52-.47c-.59,0-1.06.13-1.4.38-.35.25-.52.58-.52.99,0,.32.11.59.32.8s.47.38.79.5c.32.13.76.27,1.32.42.71.19,1.28.38,1.73.57.44.19.83.46,1.14.84.32.37.48.86.5,1.46,0,.54-.15,1.03-.45,1.46-.3.43-.72.77-1.27,1.02s-1.17.37-1.88.37c-.76,0-1.43-.13-2.03-.39Z"/>
      <path class="cls-5" d="M1190.98,285.11c-.22-.22-.32-.48-.32-.79s.11-.58.32-.79.48-.32.79-.32.55.11.76.32.32.48.32.79-.11.58-.32.79-.46.32-.76.32-.58-.11-.79-.32ZM1192.57,287.03v9.86h-1.64v-9.86h1.64Z"/>
      <path class="cls-5" d="M1196.99,283.58v13.32h-1.64v-13.32h1.64Z"/>
      <path class="cls-5" d="M1208.73,292.58h-7.88c.06.97.39,1.73,1,2.28.61.55,1.34.82,2.21.82.71,0,1.3-.17,1.77-.5.47-.33.81-.77,1-1.32h1.76c-.26.95-.79,1.72-1.58,2.31-.79.59-1.78.89-2.95.89-.94,0-1.77-.21-2.51-.63-.74-.42-1.32-1.02-1.74-1.79-.42-.77-.63-1.67-.63-2.69s.2-1.91.61-2.68c.41-.77.98-1.36,1.72-1.77.74-.41,1.59-.62,2.55-.62s1.76.2,2.48.61c.72.41,1.27.97,1.66,1.68.39.71.59,1.52.59,2.42,0,.31-.02.64-.05.99ZM1206.68,289.63c-.28-.45-.65-.79-1.12-1.03-.47-.23-1-.35-1.58-.35-.83,0-1.53.26-2.12.79s-.92,1.26-1,2.2h6.23c0-.62-.14-1.16-.41-1.61Z"/>
    </g>
  </g>
</svg>